<?xml version="1.0" encoding="utf-8"?>
<!-- Generator: Adobe Illustrator 21.1.0, SVG Export Plug-In . SVG Version: 6.00 Build 0)  -->
<svg version="1.1" id="Layer_1" xmlns="http://www.w3.org/2000/svg" xmlns:xlink="http://www.w3.org/1999/xlink" x="0px" y="0px"
	 viewBox="0 0 6569.5 4379.6" style="enable-background:new 0 0 6569.5 4379.6;" xml:space="preserve">
<style type="text/css">
	.st0{fill:#00293B;}
	.st1{fill:#70543D;}
	.st2{fill:#684C37;}
	.st3{fill:#5B402C;}
	.st4{opacity:0.15;}
	.st5{fill:#8C5B35;}
	.st6{fill:#AD7244;}
	.st7{opacity:0.1;fill:#2C2C2C;}
	.st8{opacity:5.000000e-02;clip-path:url(#SVGID_2_);fill:#FFFFFF;}
	.st9{clip-path:url(#SVGID_2_);}
	.st10{opacity:5.000000e-02;fill:#FFFFFF;}
	.st11{opacity:0.2;fill:#FFE385;}
	.st12{fill:#FFC200;}
	.st13{opacity:0.6;fill:#FF9800;}
	.st14{opacity:0.6;fill:#FFE385;}
	.st15{fill:#F0DCAE;}
	.st16{fill:#D8BD7E;}
	.st17{fill:#C1AA6F;}
	.st18{opacity:5.000000e-02;fill:#2C2C2C;}
	.st19{fill:#6A4326;}
	.st20{opacity:0.15;fill:#8C5B35;}
	.st21{fill:#B59958;}
	.st22{fill:#9D8342;}
	.st23{opacity:0.2;fill:#2C2C2C;}
	.st24{fill:#5A351B;}
	.st25{fill:#462B17;}
	.st26{opacity:0.2;fill:#B59958;}
	.st27{fill:#997E39;}
	.st28{fill:#665322;}
	.st29{fill:#E4955D;}
	.st30{fill:#F6BC93;}
	.st31{fill:#00849A;}
	.st32{fill:#009BB4;}
	.st33{fill:#00C4E2;}
	.st34{fill:#008C48;}
	.st35{fill:#D53333;}
	.st36{fill:#B52A2A;}
	.st37{fill:#9A2222;}
	.st38{opacity:0.1;fill:#FFFFFF;}
	.st39{opacity:0.3;fill:#FFFFFF;}
	.st40{opacity:0.8;fill:#FFFFFF;}
	.st41{fill:#BE7740;}
	.st42{fill:#AE6933;}
	.st43{opacity:0.15;fill:#2C2C2C;}
</style>
<rect x="-66.3" y="-44.2" class="st0" width="6702" height="4468"/>
<g>
	<g>
		<path class="st1" d="M1210.8,624.4c-4.8-102.4,74.4-189.3,176.8-194.1c102.4-4.8,189.3,74.4,194.1,176.8
			c4.8,102.4-74.4,189.3-176.8,194.1C1302.5,806,1215.6,726.8,1210.8,624.4z"/>
		<g>
			<path class="st2" d="M1217.6,565.2c48.4-26.1,108.5-43,174.2-46c65.7-3.1,127.1,8.2,177.7,29.7c-11.4-29.4-29.9-55.1-53.4-74.9
				c-38.9-10-81.9-14.7-126.9-12.6c-45,2.1-87.4,10.7-125.2,24.3C1242.3,507.6,1226.2,534.9,1217.6,565.2z"/>
			<path class="st2" d="M1537.7,736c12-14.1,21.9-29.9,29.3-47.1c-48.8-19-106.8-28.8-168.5-25.9c-61.8,2.9-118.5,18-165.3,41.5
				c8.9,16.4,20.3,31.3,33.5,44.2c40.1-15.6,85.8-25.5,134.5-27.8C1449.9,718.6,1496.3,724.2,1537.7,736z"/>
			<path class="st3" d="M1578.5,651.6c2.8-14.3,4-29.2,3.3-44.4c-0.2-3.7-0.5-7.4-0.9-11.1c-52.3-24.2-117.3-37.1-187.1-33.9
				c-69.8,3.2-133.3,22.1-183.1,51.1c0,3.7,0,7.4,0.2,11.1c0.7,15.2,3.3,30,7.4,44c49.1-27.4,110.7-45.2,178.3-48.4
				C1464,616.9,1527.1,628.9,1578.5,651.6z"/>
		</g>
		<path class="st4" d="M1481.8,706.4c-94.7,4.4-175.1-68.8-179.5-163.5c-1.7-36.7,8.3-71.2,26.7-100
			c-72.3,28.1-122,99.8-118.2,181.6c4.8,102.4,91.7,181.6,194.1,176.8c78.5-3.6,143.1-55.5,167-125.6
			C1546.2,693.6,1515.4,704.8,1481.8,706.4z"/>
	</g>
</g>
<g>
	<g>
		<path class="st5" d="M1937,2492c108.1,51.6,153.9,181.1,102.3,289.2c-51.7,108.1-181.1,153.9-289.2,102.2
			c-108.1-51.6-153.9-181.1-102.3-289.2C1699.4,2486.2,1828.9,2440.4,1937,2492z"/>
		<path class="st6" d="M1937,2492c-108.1-51.6-237.6-5.9-289.2,102.2c-51.6,108.1-5.8,237.6,102.3,289.2
			c16.4,7.9,33.4,13.4,50.5,16.9c7.8-6.2,15.5-12.8,23.3-19.9c13.9-12.6,28.9-25.8,47.5-33.6c12.8-5.4,26.6-8.4,40.4-11.4
			c15.4-2.4,31.3-3.6,43.9-12.9c13.2-11,24.7-22.7,38.9-31.3c15.5-10.2,33.9-16.1,50.2-22.5C2087.3,2663.4,2041,2541.7,1937,2492z"
			/>
		<path class="st5" d="M1647.8,2594.3c-38.3,80.2-22.9,172.2,31.7,235.5c6.4-3.8,12.5-7.4,19.3-9.3c15.1-6.3,32-5.2,47.3-4.7
			c7.3,1.1,15.7,1.6,23.2-0.1c7.5-1.8,14.5-4.7,21.4-7.6c8.2-3.4,15.1-6.3,22.8-10.9c8.2-3.4,14.8-10.3,22.5-14.9
			c6.5-4.1,13.3-4.2,21.1-2c8.7,4.6,17,7.9,27.1,9.2c7.3,1.1,14.8-0.7,21.1-2c9.1-1.1,17.8-3.3,25.9-6.7
			c23.3-9.7,45.9-17.8,68.7-28.8c14.7-7.5,29.5-17.8,44.3-28.1c5.1-3.2,9.8-6.6,14.7-9.9c10.9-89.9-35.6-180.6-121.9-221.8
			C1828.9,2440.4,1699.4,2486.2,1647.8,2594.3z"/>
		<path class="st6" d="M1647.8,2594.3c-31.1,65.1-26.8,138,5.2,197c16.9-15,34.4-28.8,55-37.4c17.5-7.3,35.2-10.6,54.2-14.4
			c8.6-2.2,16.8-5.7,24.9-9.1c8.1-3.4,16.3-6.8,24.5-10.2c8.8-5.1,17.7-10.1,26.5-15.2c8.1-3.4,15.8-8,25.1-11.9
			c8.2-3.4,15.8-8,26.1-9.6c8.6-2.2,17.1-1.7,26.2-2.8c48.4-5.2,97.6-21.7,136.8-49c0.3-0.2,0.5-0.4,0.7-0.6
			c-16-58.9-56.5-110.8-115.9-139.1C1828.9,2440.4,1699.4,2486.2,1647.8,2594.3z"/>
		<path class="st5" d="M1647.8,2594.3c-7.6,16-13.1,32.4-16.5,49l0,0c-0.4,2.1-0.8,4.1-1.2,6.2c32.9-10.4,67.7-14.5,101.5-18.9
			c44-6.1,88.4-11,130.2-25.7c11-3.2,22.6-8.1,34.2-13c12.8-5.4,25.6-10.7,37.9-17.2c21.3-12.7,39-29.3,55.5-47.4
			c-3.6-3.3-7.4-6.4-11.2-9.5c-0.4-0.3-0.7-0.6-1.1-0.9c-3.9-3.1-8-6-12.2-8.9c-0.1-0.1-0.2-0.1-0.3-0.2c-3.8-2.5-7.7-4.9-11.7-7.3
			c-1-0.6-1.9-1.1-2.9-1.7c-4.2-2.4-8.5-4.6-12.9-6.7C1828.9,2440.4,1699.4,2486.2,1647.8,2594.3z"/>
		<path class="st6" d="M1680,2545.2c1.7,0.1,3.4,0.3,5.1,0.7c11.3,0.8,21.8,3.2,33.8,2.3c9.6,0.1,19.4-2.6,27.6-6.1
			c16.8-5.7,31.4-13.2,48.2-18.8c35.4-13.5,74.5-14.8,109.5-29.4c5.8-2.4,11.1-5.6,16.2-8.9
			C1834.5,2452.3,1738.6,2477.9,1680,2545.2z"/>
		<path class="st7" d="M1647.8,2594.3c-26.6,55.7-27.3,117.1-6.9,170.6c1.4-22.6,7-45.2,17.3-66.9c43.2-90.3,151.4-128.6,241.7-85.4
			c89.1,42.5,127.5,148.4,87.1,238c21.3-18.8,39.3-42,52.3-69.3c51.6-108.1,5.8-237.6-102.3-289.2
			C1828.9,2440.4,1699.4,2486.2,1647.8,2594.3z"/>
	</g>
</g>
<g>
	<defs>
		<rect id="SVGID_1_" x="-66.3" y="-44.2" width="6702" height="4468"/>
	</defs>
	<clipPath id="SVGID_2_">
		<use xlink:href="#SVGID_1_"  style="overflow:visible;"/>
	</clipPath>
	<path class="st8" d="M6836,4236.4c0,3951.4-3203.3,7154.7-7154.7,7154.7c-3951.4,0-7154.7-3203.3-7154.7-7154.7
		c0-3951.4,3203.3-7154.7,7154.7-7154.7C3632.7-2918.3,6836,285,6836,4236.4z"/>
	<path class="st8" d="M5454,4236.4c0,3188.1-2584.5,5772.7-5772.7,5772.7c-3188.1,0-5772.7-2584.5-5772.7-5772.7
		c0-3188.1,2584.5-5772.7,5772.7-5772.7C2869.5-1536.3,5454,1048.2,5454,4236.4z"/>
	<path class="st8" d="M3950.4,4236.4c0,2357.7-1911.3,4269-4269,4269c-2357.7,0-4269-1911.3-4269-4269
		c0-2357.7,1911.3-4269,4269-4269C2039.1-32.7,3950.4,1878.7,3950.4,4236.4z"/>
	<path class="st8" d="M3190.3,4236.4c0,1937.9-1571,3509-3509,3509c-1937.9,0-3509-1571-3509-3509c0-1937.9,1571-3509,3509-3509
		C1619.3,727.4,3190.3,2298.4,3190.3,4236.4z"/>
	<circle class="st8" cx="-318.6" cy="4236.4" r="2882.4"/>
	<g class="st9">
		<circle class="st10" cx="-318.6" cy="4236.4" r="2178.6"/>
		<circle class="st10" cx="-318.6" cy="4236.4" r="1954.2"/>
		<circle class="st11" cx="-318.6" cy="4236.4" r="1787.1"/>
		<circle class="st12" cx="-318.6" cy="4236.4" r="1670.3"/>
		<circle class="st13" cx="225" cy="3201.4" r="301.3"/>
		<circle class="st14" cx="-770.6" cy="3325.9" r="425.8"/>
		<circle class="st14" cx="-630" cy="5238.6" r="425.8"/>
		<circle class="st13" cx="873.5" cy="3502.8" r="131"/>
		<circle class="st14" cx="786.7" cy="4647.6" r="131"/>
		<circle class="st14" cx="-1458.4" cy="3456.9" r="97.2"/>
		<circle class="st13" cx="1194.5" cy="4174.5" r="97.2"/>
		<circle class="st13" cx="-1230.2" cy="5268.4" r="97.2"/>
		<circle class="st14" cx="-1714.2" cy="3985.5" r="69.7"/>
		<circle class="st13" cx="-1327.4" cy="3882.7" r="131"/>
		<circle class="st13" cx="786.7" cy="3958" r="226"/>
		<circle class="st13" cx="85.6" cy="4703.3" r="226"/>
		<circle class="st14" cx="189.8" cy="3917.9" r="284.1"/>
		<circle class="st13" cx="-563.4" cy="4143.9" r="284.1"/>
		<circle class="st14" cx="458.4" cy="5238.6" r="284.1"/>
		<circle class="st14" cx="-1434.9" cy="4550.1" r="379.1"/>
		<path class="st14" d="M-111.1,5052.8c-537.4,106.9-1059.1,166.9-1545.2,184c221.4,295.6,538.5,515.2,905.2,613.3
			c252.7-30.3,511.5-71.3,774-123.5c226.7-45.1,447.5-96.8,661.3-154.4c295.4-222.1,514.7-540,611.9-907.6
			C864.5,4820.4,390.9,4952.9-111.1,5052.8z"/>
		<path class="st14" d="M-28.3,2795.8c-78.6-29.5-167-29.5-255.4-9.8c-29.5,9.8-78.6,19.7-98.2,49.1c-19.7,29.5,0,68.8,9.8,98.2
			c29.5,78.6,9.8,147.4-78.6,186.7c-88.4,49.1-186.7,58.9-275.1,127.7c-49.1,39.3-137.5,137.5-39.3,176.8
			c88.4,39.3,206.3-9.8,304.6-39.3c88.4-19.7,167-9.8,255.4-9.8c88.4,0,147.4-49.1,206.3-108.1c78.6-68.8,147.4-68.8,235.8-59
			c59,0,108.1,0,157.2,9.8c49.1,0,98.2,0,147.4,29.5c78.6,39.3,39.3,157.2,9.8,226c-39.3,68.8-88.4,147.4-68.8,235.8
			c19.7,78.6,78.6,176.8,157.2,216.1c78.6,39.3,157.2,9.8,206.3-49.1c59-68.8,108.1-157.2,98.3-245.6c0-39.3-19.7-68.8-29.5-98.2
			c-19.7-49.1-29.5-88.4-29.5-137.5c-19.7-108.1-39.3-206.3-167-226c-49.1-9.8-98.2-9.8-147.4-19.6c-39.3-19.7-78.6-39.3-117.9-68.8
			c-78.6-49.1-176.8-58.9-265.3-88.4C99.4,2953,40.4,2874.4-18.5,2795.8"/>
		<path class="st14" d="M-1158.2,3237.9c-49.1,68.8-108.1,127.7-167,186.7c-58.9,59-147.4,117.9-176.8,206.3
			c-68.8,196.5,245.6,235.8,314.4,353.7c39.3,78.6-39.3,157.2-78.6,216.1c-68.8,78.6-147.4,176.8-167,284.9
			c-9.8,88.4,49.1,157.2,127.7,196.5c59,29.5,137.5,39.3,186.7,98.2c49.1,49.1,58.9,137.5,78.6,206.3
			c29.5,88.4,59,186.7,127.7,255.4c147.4,137.5,402.8,9.8,501.1-127.7c147.4-206.3-157.2-353.7-275.1-471.6
			c-68.8-68.8-78.6-137.5-9.8-206.3c49.1-78.6,147.4-137.5,176.8-226c39.3-98.2-88.4-147.4-167-176.8
			c-98.2-49.1-226-88.4-284.9-186.7c-49.1-88.4-29.5-196.5-39.3-294.7c-19.7-88.4-68.8-157.2-137.5-226"/>
		<path class="st14" d="M-126.6,3758.6c78.6-39.3,167-68.8,255.4-29.5c88.4,49.1,137.5,137.5,167,226
			c19.6,78.6,39.3,127.7,117.9,157.2c88.4,19.6,167,29.5,245.6,68.8c68.8,29.5,117.9,49.1,196.5,19.6
			c78.6-39.3,147.4-108.1,235.8-127.7c88.4-9.8,49.1,127.7,49.1,176.8c-19.7,98.2-39.3,206.3-68.8,294.7
			c-49.1,186.7-275.1,245.6-324.2,432.3c-19.7,78.6,0,157.2-19.7,235.8c-39.3,98.3-127.7,167-216.1,226
			c-68.8,49.1-167,98.2-265.3,98.2c-78.6,0-147.4-49.1-196.5-108.1c-59-78.6-98.3-176.8-108.1-284.9c-9.8-78.6,0-176.8-9.8-255.4
			c-29.5-216.1-206.3-373.3-216.1-579.7c0-98.3,29.5-196.5,68.8-284.9c29.5-98.3,58.9-186.7,88.4-284.9"/>
	</g>
	<g class="st9">
		<g>
			<path class="st15" d="M5232.1,1773.6c-413.5-199.6-586.9-696.5-387.2-1109.9c199.5-413.4,696.5-586.8,1110-387.2
				c413.4,199.5,586.8,696.5,387.3,1110C6142.4,1799.9,5645.5,1973.2,5232.1,1773.6z"/>
		</g>
		<g>
			<path class="st16" d="M4774.9,879c-19.7,109.8-16.6,220.8,7.1,326.7c240.7-54.7,499.6-149.8,757-284.6
				c257.5-134.9,483-293.6,665.1-460.4c-68.8-74.5-152.5-137.5-249.3-184.3c-5.1-2.5-10.3-4.9-15.5-7.2
				c-159.5,130.7-345.4,254.2-552,362.4C5180.7,739.8,4973.2,822.3,4774.9,879z"/>
			<path class="st16" d="M4855.8,1408.5c54.1,104.2,130.6,197.6,226.6,272.2c227.6-56,470-147.4,711.1-273.7
				c241.2-126.3,454.3-273.6,630-428.8c-6.8-119.4-39.4-235.9-94.9-341.2c-185.7,174.1-418.9,340.2-686.8,480.4
				C5374,1257.8,5104.7,1355,4855.8,1408.5z"/>
			<path class="st17" d="M6379.4,1295.9c-143.3,110.4-305.6,214.7-483,307.6c-177.4,92.9-355.6,166.9-527.9,221.9
				c380.9,107.6,795.5-70.1,973.6-438.9C6356.5,1356.6,6368.9,1326.4,6379.4,1295.9z"/>
			<path class="st17" d="M5284.5,435.2C5424,362.1,5554.1,282,5673,197.4c-320.7-30.8-640.9,127.9-805,421.7
				C5005.2,569.5,5145.1,508.2,5284.5,435.2z"/>
		</g>
		<path class="st18" d="M5954.8,276.4c-373.1-180.1-814.1-56.5-1043.3,273c143.9-84.7,326.1-98.3,487.9-20.3
			c257.4,124.2,365.3,433.6,241.1,691c-124.3,257.4-433.7,365.3-691,241c-35.8-17.3-68.6-38.2-98.4-62
			c79.4,157.8,209.5,291.7,381,374.5c413.4,199.6,910.3,26.3,1110-387.2C6541.6,972.9,6368.3,476,5954.8,276.4z"/>
	</g>
	<g class="st9">
		<g>
			<path class="st19" d="M5268.5,4249.6c45.9-413.5,418.3-711.5,831.8-665.5c413.4,45.9,711.4,418.3,665.5,831.8
				c-45.9,413.4-418.3,711.4-831.8,665.5C5520.4,5035.4,5222.5,4663,5268.5,4249.6z"/>
			<path class="st5" d="M5268.5,4249.6c-46,413.4,251.9,785.8,665.5,831.8c413.5,45.9,785.9-252.1,831.8-665.5
				c7-62.9,5.9-124.9-2.2-184.9c-29.4-18.4-59.6-36.1-91.8-53.7c-57.3-31-117.5-65.3-164.3-117.5c-32.2-35.8-57.9-77.6-83.6-119.3
				c-25.3-48-47.4-98.8-92.3-129.2c-51.1-30.7-102.5-55.2-147.2-91.8c-51.1-39.2-91.4-92.9-131.1-139.1
				C5659,3561,5312.7,3851.8,5268.5,4249.6z"/>
			<path class="st19" d="M5934,5081.4c249.1,27.6,483.3-69.8,640.1-241.8c-68.4-38.2-133.7-80-185.3-137.5
				c-43.9-49-75.1-103.4-109.1-161.1c-17.3-25.8-37.8-48.6-58.2-71.4c-20.5-22.9-41-45.7-61.5-68.5c-26.7-23.2-53.3-46.4-80.1-69.6
				c-20.5-22.8-44.2-42.7-67.6-68.8c-20.6-22.9-44.3-42.7-61.1-74.7c-17.3-25.8-25-54.2-39-82.9c-72.3-152.9-182.6-295.4-317-392.7
				c-0.9-0.6-1.8-1.1-2.7-1.7c-174.9,119.6-298.8,311.7-324,538.8C5222.5,4663,5520.4,5035.4,5934,5081.4z"/>
			<path class="st20" d="M6765.7,4415.9c45.9-413.5-252.1-785.9-665.5-831.8c-242.4-27-470.1,64.8-626.7,228.3
				c83.1-29.3,173.7-41.5,267.2-31.1c331.5,36.8,570.4,335.4,533.6,667c-35.7,321-316.8,554.3-635.5,535.5
				c88,51.2,187.5,85.7,295.2,97.7C6347.4,5127.3,6719.8,4829.3,6765.7,4415.9z"/>
			<path class="st5" d="M5736.3,5031.6c-1.5-5.7-2.8-11.4-3.6-17.5c-10.4-37.8-14.5-75.3-31.1-113.4c-10.7-31.6-30.9-60.6-51.3-83.5
				c-37.7-48.6-79.1-88.1-116.8-136.7c-84.5-100.8-133.5-227.6-221.3-325.4c-14.7-16.4-30.9-30.1-47.7-43.1
				C5255.2,4631.1,5448.7,4916.2,5736.3,5031.6z"/>
		</g>
	</g>
	<g class="st9">
		<g>
			<path class="st16" d="M3326.9-346.9c227.1,98,331.7,361.5,233.7,588.6c-98,227.1-361.5,331.7-588.6,233.7
				c-227.1-98-331.7-361.5-233.7-588.6C2836.4-340.3,3099.9-444.9,3326.9-346.9z"/>
			<g>
				<path class="st21" d="M3481.3-236.4c-41.7-46.1-93.6-84.3-154.4-110.5c-73.7-31.8-151.2-42.1-225.7-34
					c-30.9,52.1-65.6,102.3-83.1,160.7c-27.7,92.6-17.2,193.5-61.1,281.9c-19.9,40.2-48.1,77.2-40.4,124.7
					c6.7,41.8,12.6,76.5,2.9,118.8c-9.6,42-31.5,75.2-61.9,98.7c33.5,28.8,71.7,53.1,114.4,71.5c91.8,39.6,189.4,46.1,279.8,24.8
					c21.5-34,23.5-85.3,19.7-128.2c-5.5-61.3-4-138.6,51.7-164.6c16-7.5,36.3-10.5,44.8-26c8-14.5,1.3-32.2-2.3-48.3
					c-8.9-40.7,5.6-85.6,36.5-113.5c13.9-12.5,31.1-22.1,41.2-37.9c21.2-33.1,3-76,0.4-115.2C3441.5-171,3456.1-208.6,3481.3-236.4z
					"/>
			</g>
			<path class="st21" d="M3508.7,120.3c43.2,18.6,63.1,68.7,44.5,111.9c-18.6,43.2-68.8,63.1-111.9,44.4
				c-43.2-18.6-63.1-68.7-44.4-111.9C3415.4,121.5,3465.6,101.6,3508.7,120.3z"/>
			<path class="st22" d="M2970.8-181.2c33.4,14.4,48.8,53.2,34.4,86.6c-14.4,33.4-53.2,48.8-86.6,34.4
				c-33.4-14.4-48.8-53.2-34.4-86.6C2898.6-180.3,2937.4-195.7,2970.8-181.2z"/>
			<path class="st22" d="M3144.6,174.7c49.6,21.4,72.4,78.9,50.9,128.4c-21.3,49.5-78.9,72.4-128.4,51
				c-49.5-21.4-72.3-78.9-50.9-128.4C3037.5,176.1,3095,153.3,3144.6,174.7z"/>
			<path class="st22" d="M3328.7-259.2c84,36.3,122.7,133.8,86.5,217.7c-36.3,84-133.8,122.7-217.8,86.5
				c-84-36.3-122.7-133.8-86.4-217.7C3147.2-256.7,3244.7-295.5,3328.7-259.2z"/>
			<path class="st23" d="M2862.7,153.9c90.7-210,334.3-306.7,544.3-216.1c81.4,35.1,145.5,93.4,188.6,163.6
				c15.5-186.4-87.3-370.1-268.6-448.3c-227-98-490.5,6.6-588.6,233.7c-75.1,173.9-31,369,95.7,494.9
				C2822.3,307,2830.5,228.4,2862.7,153.9z"/>
		</g>
	</g>
</g>
<g>
	<g>
		<g>
			<path class="st24" d="M2682.2,952.5c107,77.3,131.1,226.8,53.7,333.8c-77.3,107-226.7,131.1-333.8,53.7
				c-107-77.3-131.1-226.8-53.7-333.8C2425.7,899.2,2575.2,875.1,2682.2,952.5z"/>
			<path class="st19" d="M2682.2,952.5c-107-77.4-256.4-53.3-333.8,53.7c-77.3,107-53.3,256.4,53.7,333.8
				c16.3,11.8,33.5,21.2,51.4,28.3c9.7-5.2,19.3-10.8,29.2-17c17.5-11,36.4-22.2,58.1-27c14.9-3.3,30.5-3.8,46-4.4
				c17.2,0.5,34.7,2.3,50.1-5.3c16.5-9.3,31.3-19.7,48.4-26.3c18.8-8,40-10.7,58.9-14.4C2811.2,1168,2785.1,1026.9,2682.2,952.5z"/>
			<path class="st5" d="M2348.4,1006.2c-46.6,64.5-56.3,144.4-33.3,214.6c21.2-12.9,43-24.4,67-29.7c20.4-4.5,40.3-4.6,61.6-5
				c9.8-0.7,19.3-2.8,28.8-4.9c9.5-2.1,19-4.2,28.5-6.3c10.6-3.7,21.1-7.5,31.7-11.2c9.5-2.1,18.7-5.5,29.6-7.9
				c9.5-2.1,18.7-5.5,30.2-5.2c9.8-0.7,18.9,1.6,29,2.2c53.5,3.9,110.1-4.2,158-26.1c0.3-0.1,0.6-0.3,0.9-0.5
				c-5.7-67-39.4-131.3-98.1-173.7C2575.2,875.1,2425.7,899.2,2348.4,1006.2z"/>
			<g>
				<path class="st24" d="M2778.1,1184.6c8.7-53.9-1.2-109.4-28.3-156.9c-27.2,7.9-55.8,38-79,21.6c-4.8-3.4-8.7-8.6-14.5-9.4
					c-4.1-0.6-8.1,1.3-11.7,3.4c-24.8,14.9-47.8,47.4-74.3,35.7c-5.5-2.4-10.1-6.7-15.9-8.4c-19.2-5.8-34,17.3-52.6,24.7
					c-31.1,12.3-68.5-21.6-97.8-5.4c-8.2,4.5-16.2,12.9-25.2,10.1c-8.1-2.5-11.9-13.3-20.2-14.5c-6.8-0.9-12.3,5.1-17.6,9.5
					c-9.7,8.1-21.9,11.5-34.5,11.4c-9.3,55.3,1.1,112.4,29.6,160.9c18.7-8,37.8-14.9,57.4-20.3c12.1-3.4,25.6-6.1,36.9-0.7
					c5.9,2.8,10.9,7.7,17.3,9.2c6.5,1.5,13.2-0.9,19.3-3.6c36-16.5,69.3-50.4,108.1-42.3c6.5,1.4,13,3.9,19.6,3
					c12.8-1.8,21-15.8,33.6-18.6c11.4-2.5,22.9,4.9,34.6,4c11.9-0.9,21.3-10,32.1-15.1c13.2-6.2,28.3-6.3,42.8-6.3
					C2751.2,1176.6,2766.9,1178,2778.1,1184.6z"/>
			</g>
			<path class="st19" d="M2393,959.4c1.8,0.5,3.6,1,5.4,1.7c12.1,3,23.1,7.8,36.2,9.1c10.4,2,21.6,1,31.1-1.1
				c19.3-2.8,36.7-8,56-10.9c41.1-7.6,83.7-1.3,124.5-10.2c6.8-1.5,13.1-3.8,19.4-6.4C2578.9,889.2,2469.9,898,2393,959.4z"/>
			<path class="st7" d="M2682.2,952.5c-82.7-59.8-190.8-58.9-271.4-6c46.1-0.9,92.9,12.6,133.2,41.7
				c98.6,71.2,120.7,208.8,49.5,307.4c-29.2,40.4-69.6,67.9-113.8,81.5c93.2,25.2,196.3-7.9,256.2-90.7
				C2813.3,1179.3,2789.2,1029.8,2682.2,952.5z"/>
			<path class="st25" d="M2447.2,1365.5c71.9,31.2,154.2,24.7,219.7-15.4c-0.8-0.3-1.6-0.7-2.5-1c-12.1-5-25.4-9.1-33.9-17.8
				c-37.2,24.3-81,31.4-123.4,22c-0.9,0.2-1.8,0.5-2.8,0.7C2504.4,1354,2487.9,1376.4,2447.2,1365.5z"/>
		</g>
	</g>
	<path class="st26" d="M2987.3,1090.2c-8.5-38.4-98.4-48-227.4-42.2c4.4,9.8,8.2,19.9,11.3,30.2c73.8-3.3,122.1,8.3,125.1,21.5
		c5.5,25-150.2,72.6-347.8,106.4c-197.6,33.8-362.3,41-367.9,16c-3.1-14.1,44.7-43.5,122.8-65.6c-0.5-11.3-0.2-22.7,0.9-34
		c-135.7,40-223.3,80.1-214.2,121.1c13.3,59.8,224.1,59.6,471.8,17.2C2809.7,1218.5,3000.6,1149.9,2987.3,1090.2z"/>
</g>
<g>
	<g>
		<path class="st16" d="M1393,1452.7c72.7,81.4,65.6,206.3-15.8,279c-81.4,72.7-206.3,65.6-279-15.8c-72.7-81.4-65.6-206.3,15.8-279
			C1195.4,1364.3,1320.3,1371.3,1393,1452.7z"/>
		<g>
			<path class="st27" d="M1427.1,1506.1c-22.4,54-60.7,108.3-112.9,154.9c-52.2,46.6-110.4,78.5-166.6,94.8
				c29.1,16.6,61.6,25.4,94.4,26c38.9-17.8,77.5-42.8,113.3-74.8c35.8-32,65-67.5,87.1-104.1
				C1445.4,1570.3,1440.3,1536.9,1427.1,1506.1z"/>
			<path class="st27" d="M1048.1,1579.9c-0.5,19.7,2,39.4,7.4,58.6c53.1-17,107.5-47.9,156.5-91.7c49.1-43.8,85.8-94.4,108.7-145.2
				c-18.4-7.5-37.7-12.2-57.3-14c-22.6,39.8-53.7,78.6-92.5,113.2C1132.3,1535.4,1090.2,1561.9,1048.1,1579.9z"/>
			<path class="st27" d="M1071.1,1677c7.3,13.7,16.3,26.8,27.1,38.9c2.7,3,5.4,5.8,8.2,8.6c59.5-15.1,121.7-48.1,177.2-97.6
				c55.5-49.5,95.2-107.7,116.9-165.1c-2.4-3.1-4.9-6.1-7.6-9.1c-10.8-12.1-22.8-22.6-35.6-31.4c-22.1,55.6-61,111.6-114.8,159.6
				C1188.9,1628.9,1128.8,1661.3,1071.1,1677z"/>
		</g>
		<path class="st28" d="M1170.5,1549.9c21.8,24.4,19.6,61.8-4.7,83.5c-24.4,21.8-61.8,19.6-83.5-4.7c-21.8-24.4-19.7-61.8,4.7-83.5
			C1111.4,1523.4,1148.7,1525.6,1170.5,1549.9z"/>
		<path class="st28" d="M1343.2,1667.3c13.8,15.5,12.5,39.2-3,53c-15.5,13.8-39.2,12.5-53.1-3c-13.8-15.5-12.5-39.2,3-53
			C1305.6,1650.4,1329.4,1651.8,1343.2,1667.3z"/>
		<path class="st28" d="M1219.7,1452.9c10.7,12,9.7,30.4-2.3,41c-12,10.7-30.4,9.7-41.1-2.3c-10.7-12-9.7-30.4,2.3-41.1
			C1190.6,1439.8,1209,1440.9,1219.7,1452.9z"/>
		<path class="st28" d="M1208.7,1683c10.7,12,9.7,30.4-2.3,41.1c-12,10.7-30.4,9.7-41.1-2.3c-10.7-12-9.6-30.4,2.3-41
			C1179.6,1670,1198,1671,1208.7,1683z"/>
		<path class="st28" d="M1377.4,1488.1c26.9,30.1,24.3,76.3-5.8,103.2c-30.1,26.9-76.3,24.3-103.2-5.8
			c-26.9-30.1-24.3-76.3,5.8-103.2C1304.3,1455.4,1350.5,1458,1377.4,1488.1z"/>
		<path class="st7" d="M1114.2,1566.9c75.3-67.2,190.8-60.7,258,14.6c26.1,29.2,40.9,64.4,45.1,100.5
			c40.8-71.7,33.8-164.3-24.2-229.3c-72.7-81.4-197.6-88.5-279-15.8c-62.3,55.7-80.9,141.9-53.6,215.8
			C1069.6,1620.7,1087.5,1590.8,1114.2,1566.9z"/>
	</g>
</g>
<g>
	<g>
		<path class="st29" d="M3520.5,3555.3c-17.1,143.3-147.1,245.6-290.3,228.5c-143.3-17.1-245.5-147.1-228.4-290.3
			c17.1-143.3,147.1-245.5,290.3-228.5C3435.4,3282.1,3537.6,3412.1,3520.5,3555.3z"/>
		<path class="st6" d="M3520.5,3555.3c17.1-143.2-85.1-273.2-228.4-290.3c-143.3-17.1-273.2,85.2-290.3,228.5
			c-2.6,21.8-2.4,43.3,0.2,64.1c10.1,6.5,20.5,12.7,31.7,18.9c19.8,10.9,40.6,23,56.7,41.2c11.1,12.5,19.8,27.1,28.6,41.6
			c8.7,16.7,16.2,34.4,31.6,45c17.6,10.8,35.4,19.4,50.8,32.2c17.6,13.7,31.4,32.5,45,48.6C3383.2,3793,3504.1,3693.2,3520.5,3555.3
			z"/>
		<path class="st5" d="M3292.1,3265c-106.3-12.7-205.3,40.4-256.3,127.2c6.9,5.8,13.3,11.4,18.1,18.4c13.1,14.8,18.3,34.5,23.7,52.1
			c1.6,8.7,4.2,18.6,9.1,26.4c4.9,7.8,10.9,14.7,17,21.5c7,8,13.1,14.8,21.3,21.8c7,8,17.5,12.9,25.7,19.9
			c7.2,5.8,9.9,13.5,10.4,23.3c-1.8,11.7-2.5,22.5,0,34.5c1.6,8.7,6.5,16.6,10.4,23.3c4.8,10,10.7,19,17.7,26.9
			c20.1,22.8,38.1,45.4,59.4,67.2c14.2,13.8,31.7,26.8,49.2,39.7c5.6,4.6,11.3,8.6,17,13c106.8-22.3,192.2-110.5,205.9-224.7
			C3537.6,3412.1,3435.4,3282.1,3292.1,3265z"/>
		<path class="st29" d="M3292.1,3265c-86.3-10.3-167.8,22.8-222.7,82c23.6,13.4,46.1,28.1,63.9,48.2c15.1,17.1,25.7,36.1,37.4,56.2
			c5.9,9,12.9,17,20,24.9c7,8,14.1,16,21.1,23.9c9.2,8.1,18.4,16.2,27.6,24.3c7,8,15.2,15,23.3,24.1c7,8,15.2,14.9,21,26.1
			c5.9,9,8.5,18.8,13.3,28.8c24.7,53.2,62.5,103,108.8,137.1c0.3,0.2,0.6,0.4,0.9,0.6c61-41,104.5-107.3,113.9-185.9
			C3537.6,3412.1,3435.4,3282.1,3292.1,3265z"/>
		<path class="st30" d="M3292.1,3265c-21.1-2.5-42-2.4-62.2,0l0,0c-2.5,0.3-5,0.6-7.5,1c24.6,33.5,42.7,71.6,60.8,108.4
			c23.9,47.8,46.7,96.6,79.7,138.5c7.9,11.3,18,22.7,28,34c11.1,12.5,22.1,25.1,34.3,36.6c22.8,19.4,48.5,33.2,75.5,45
			c2.3-5.4,4.5-10.9,6.5-16.5c0.2-0.5,0.4-1.1,0.6-1.6c2-5.7,3.8-11.4,5.4-17.3c0-0.1,0.1-0.3,0.1-0.5c1.4-5.3,2.7-10.7,3.8-16.2
			c0.3-1.3,0.5-2.7,0.8-4c1.1-5.7,2-11.4,2.7-17.3C3537.6,3412.1,3435.4,3282.1,3292.1,3265z"/>
		<path class="st6" d="M3360.5,3282.8c0.5,2,0.9,4,1.2,6.1c3.5,13.1,4.8,26.1,10.5,39.4c3.6,11,10.5,21.1,17.6,29.1
			c12.9,17,27.2,30.8,40.1,47.7c29,35.2,45.7,79.3,75.8,113.5c5,5.7,10.6,10.5,16.4,15.1C3526.2,3423.1,3459.9,3323.6,3360.5,3282.8
			z"/>
		<path class="st7" d="M3292.1,3265c-73.8-8.8-144.1,14.2-197.2,58c26.3-7.1,54.3-9.5,82.9-6.1c119.7,14.3,205.2,122.9,190.9,242.6
			c-14.1,118.1-119.9,202.8-237.7,191.4c29.6,17,63.1,28.5,99.2,32.9c143.3,17.1,273.3-85.2,290.3-228.5
			C3537.6,3412.1,3435.4,3282.1,3292.1,3265z"/>
	</g>
</g>
<g>
	<g>
		<path class="st31" d="M3559.5,1780c171.4,59.2,262.2,246.1,203,417.5c-59.2,171.3-246.1,262.2-417.5,202.9
			c-171.3-59.2-262.2-246.1-203-417.5C3201.3,1811.6,3388.2,1720.7,3559.5,1780z"/>
		<path class="st32" d="M3559.5,1780c-171.3-59.3-358.2,31.6-417.5,202.9c-59.2,171.3,31.6,358.3,203,417.5
			c26.1,9,52.5,14.5,78.8,16.8c10.7-10.7,21.1-21.8,31.6-33.9c18.7-21.4,39-43.7,65.7-58.6c18.3-10.2,38.5-17.1,58.7-24.1
			c22.8-6.2,46.6-10.7,63.8-26.8c18-18.8,33.3-38.3,53.1-53.7c21.6-18,48.3-29.9,71.7-42.3C3814.7,2012.1,3724.4,1837,3559.5,1780z"
			/>
		<path class="st33" d="M3142,1982.9c-35.7,103.2-16.8,212.1,41.3,295.3c22.8-25.4,46.8-49.1,76.3-65.6c25-13.9,51.2-22,79-30.9
			c12.6-4.9,24.3-11.4,35.9-17.9c11.7-6.5,23.4-13,35-19.5c12.4-9.1,24.8-18.2,37.3-27.3c11.7-6.5,22.4-14.7,35.7-22.1
			c11.7-6.5,22.4-14.7,37.6-18.8c12.6-4.9,25.4-5.4,39-8.6c71.9-16.1,143.1-49.2,197.4-97c0.3-0.3,0.6-0.6,1-1
			c-34-85.8-103.8-156.9-197.9-189.5C3388.2,1720.7,3201.3,1811.6,3142,1982.9z"/>
		<path class="st32" d="M3182.2,1903.7c2.6-0.1,5.1-0.1,7.8,0.1c17.1-0.8,33.4,1.1,51.2-2.3c14.5-1.5,28.7-7.3,40.4-13.8
			c24.3-11.4,45-25.1,69.3-36.5c51-26.2,109.6-34.9,159.6-62.8c8.4-4.7,15.8-10.2,22.9-16.1
			C3398.7,1737.7,3258.9,1792.5,3182.2,1903.7z"/>
		<path class="st34" d="M3673.8,1848c-32.1-29.4-70.5-52.9-114.2-68c-33.6-11.6-67.7-17.3-101.4-17.9c-10.3,8.8-20.7,17.4-31.7,25.8
			l0.8,12.8c-19.4,9.2-37.7,20.4-42.4,43.7c-1.5,19.1,4.4,42.6,17.9,54.6c15.7,11,32.9,2.9,49-2.1c23.5-5.9,48.1-9.6,68,4.7
			c22,13.3,26.9,34.6,22.1,57.9c-4.8,23.3-16.9,42.2-16.3,65.6c0.5,23.4,15,42.9,30.6,59.2c14.6,14.1,32.3,29.4,54.6,32
			s47.9-4.3,70.4-12.3c15.1-7.1,40.7-14,45.4-32c3.5-14.8-4.6-32-4.3-48c0.5-21.2,7.3-40.2,10.9-60.4c6.2-42.4-55.5-39.5-63.2-77.9
			C3667.1,1873.7,3669.9,1860.8,3673.8,1848z"/>
		<path class="st34" d="M3337.9,2234.7c2.4-11.6,3.7-25.4-4.5-37.3c-7.2-9.7-18.9-12.1-29.4-17.7c-25.3-9.1-55.8-23.6-55.1-55.4
			c1.7-29.7,26.7-54.7,23.1-84.6c-3.7-24.5-26.4-55.9-54.3-48c-13.9,3.9-22.6,13.3-32.3,20.6c-11.9,8.3-21.6,15.5-34.4,16.3
			c-7.3,2.1-14.4,3.3-21.6,4.2c-21.2,118.3,24.6,237.2,115.3,311.4c2.6-2.1,5.2-4.2,7.9-6c11.9-8.2,26.9-15.4,38.8-23.6
			C3314.2,2295.9,3330.9,2264.3,3337.9,2234.7z"/>
		<path class="st33" d="M3693.6,2308.4c-17.8-1.8-37-1.8-51.6-10c-39.3,46.7-94.1,73.4-153.5,77.9c-1.1,0.6-2.2,1.3-3.4,2
			c-26.6,14.2-50.3,18.2-71.1,14.1c-0.1,7.9,0,15.9,0.4,23.7c107,12.5,212.5-28.6,282.8-107.3
			C3696,2308.7,3694.8,2308.5,3693.6,2308.4z"/>
		<path class="st7" d="M3559.5,1780c-132.5-45.8-274.2-1.8-359.1,99.7c60.3-19.5,127.2-20.3,191.7,2
			c157.8,54.5,241.5,226.7,186.9,384.4c-22.4,64.7-64.5,116.9-117.3,152.2c132.5-3.8,255-88.2,300.8-220.9
			C3821.8,2026.1,3730.9,1839.2,3559.5,1780z"/>
	</g>
</g>
<g>
	<g>
		<path class="st35" d="M4045.6,1276.9c-6-102.7,72.4-190.7,175-196.7c102.6-6,190.7,72.4,196.7,175c6,102.6-72.4,190.7-175,196.7
			C4139.6,1457.9,4051.6,1379.5,4045.6,1276.9z"/>
		<path class="st36" d="M4045.6,1276.9c6,102.6,94,181,196.7,175c102.7-6,181-94.1,175-196.7c-0.9-15.6-3.8-30.7-8.2-45
			c-7.9-3.3-16-6.3-24.6-9.3c-15.3-5.2-31.3-11-44.9-21.8c-9.3-7.4-17.3-16.5-25.3-25.6c-8.2-10.6-15.7-22.1-27.8-27.6
			c-13.7-5.4-27.3-9.2-39.7-16.3c-14.1-7.4-26.1-18.8-37.7-28.4C4112.1,1092.9,4039.8,1178.1,4045.6,1276.9z"/>
		<path class="st35" d="M4242.3,1451.9c61.9-3.6,114.9-37.1,145.9-85.5c-18.2-6.5-35.9-13.9-50.9-25.8
			c-12.7-10.1-22.6-22.1-33.3-34.7c-5.3-5.6-11.2-10.3-17.1-15c-5.9-4.7-11.9-9.4-17.8-14.1c-7.5-4.5-14.9-9.1-22.4-13.6
			c-5.9-4.7-12.5-8.6-19.3-14c-6-4.7-12.6-8.6-18-15.7c-5.3-5.6-8.4-12.2-12.9-18.6c-24-34.3-56.8-64.4-93.5-82.5
			c-0.2-0.1-0.5-0.2-0.7-0.3c-37.7,36.4-59.8,88.4-56.6,144.7C4051.6,1379.5,4139.6,1457.9,4242.3,1451.9z"/>
		<path class="st37" d="M4192,1448c-0.6-1.3-1.2-2.7-1.6-4.1c-4.1-8.8-6.7-17.7-12.3-26.3c-3.9-7.3-10-13.5-16-18.2
			c-11.2-10.3-22.9-18.2-34.1-28.5c-24.8-21.1-42-49.9-67.4-70.1c-4.3-3.4-8.8-6.1-13.4-8.5C4058.2,1370.4,4117.2,1431.8,4192,1448z
			"/>
		<path class="st7" d="M4417.3,1255.2c-6-102.7-94.1-181-196.7-175c-60.2,3.5-111.8,35.3-143.2,81.7c19-10.6,40.6-17.3,63.8-18.7
			c82.3-4.8,152.9,58,157.7,140.3c4.6,79.7-54.2,148.2-132.6,156.9c23.6,8.8,49.2,13.1,76,11.5
			C4344.9,1445.9,4423.3,1357.9,4417.3,1255.2z"/>
	</g>
</g>
<g>
	<circle class="st10" cx="2861.3" cy="1863.2" r="82.8"/>
	<circle class="st38" cx="2861.3" cy="1863.2" r="61.8"/>
	<circle class="st39" cx="2861.3" cy="1863.2" r="42.1"/>
	<circle class="st40" cx="2861.3" cy="1863.2" r="23.8"/>
</g>
<g>
	<path class="st10" d="M6373.3,3214.3c0,45.8-37.1,82.9-82.8,82.9c-45.8,0-82.8-37.1-82.8-82.9c0-45.8,37.1-82.8,82.8-82.8
		C6336.2,3131.5,6373.3,3168.6,6373.3,3214.3z"/>
	<path class="st38" d="M6352.2,3214.3c0,34.1-27.7,61.8-61.8,61.8s-61.8-27.6-61.8-61.8c0-34.1,27.7-61.8,61.8-61.8
		S6352.2,3180.2,6352.2,3214.3z"/>
	<path class="st39" d="M6332.5,3214.3c0,23.3-18.8,42.1-42.1,42.1c-23.2,0-42.1-18.8-42.1-42.1c0-23.2,18.8-42.1,42.1-42.1
		C6313.7,3172.2,6332.5,3191.1,6332.5,3214.3z"/>
	<path class="st40" d="M6314.3,3214.3c0,13.2-10.7,23.8-23.8,23.8c-13.2,0-23.8-10.7-23.8-23.8c0-13.2,10.7-23.8,23.8-23.8
		C6303.6,3190.5,6314.3,3201.2,6314.3,3214.3z"/>
</g>
<g>
	<path class="st10" d="M4029.7,289.2c0,45.8-37.1,82.8-82.8,82.8S3864,335,3864,289.2c0-45.8,37.1-82.8,82.8-82.8
		S4029.7,243.4,4029.7,289.2z"/>
	<path class="st38" d="M4008.7,289.2c0,34.1-27.7,61.8-61.8,61.8c-34.1,0-61.8-27.6-61.8-61.8c0-34.1,27.7-61.8,61.8-61.8
		C3981,227.4,4008.7,255.1,4008.7,289.2z"/>
	<path class="st39" d="M3989,289.2c0,23.3-18.8,42.1-42.1,42.1c-23.2,0-42.1-18.8-42.1-42.1c0-23.2,18.8-42.1,42.1-42.1
		C3970.1,247.1,3989,265.9,3989,289.2z"/>
	<path class="st40" d="M3970.7,289.2c0,13.2-10.7,23.8-23.8,23.8c-13.2,0-23.8-10.7-23.8-23.8c0-13.2,10.7-23.8,23.8-23.8
		C3960,265.4,3970.7,276,3970.7,289.2z"/>
</g>
<g>
	<path class="st10" d="M4313.4,3066.7c0,45.8-37.1,82.8-82.8,82.8c-45.8,0-82.8-37.1-82.8-82.8c0-45.8,37.1-82.8,82.8-82.8
		C4276.3,2983.8,4313.4,3020.9,4313.4,3066.7z"/>
	<path class="st38" d="M4292.4,3066.7c0,34.1-27.7,61.8-61.8,61.8c-34.1,0-61.8-27.6-61.8-61.8c0-34.1,27.7-61.8,61.8-61.8
		C4264.7,3004.9,4292.4,3032.6,4292.4,3066.7z"/>
	<path class="st39" d="M4272.7,3066.7c0,23.3-18.8,42.1-42.1,42.1c-23.2,0-42.1-18.8-42.1-42.1c0-23.2,18.8-42.1,42.1-42.1
		C4253.8,3024.6,4272.7,3043.4,4272.7,3066.7z"/>
	<path class="st40" d="M4254.4,3066.7c0,13.2-10.7,23.8-23.8,23.8c-13.2,0-23.8-10.7-23.8-23.8c0-13.2,10.7-23.8,23.8-23.8
		C4243.8,3042.9,4254.4,3053.5,4254.4,3066.7z"/>
</g>
<g>
	<path class="st10" d="M644.8,1566.6c0,45.8-37.1,82.9-82.8,82.9c-45.8,0-82.8-37.1-82.8-82.9c0-45.8,37.1-82.8,82.8-82.8
		C607.7,1483.8,644.8,1520.8,644.8,1566.6z"/>
	<path class="st38" d="M623.7,1566.6c0,34.1-27.7,61.8-61.8,61.8c-34.1,0-61.8-27.6-61.8-61.8c0-34.1,27.7-61.8,61.8-61.8
		C596,1504.8,623.7,1532.5,623.7,1566.6z"/>
	<path class="st39" d="M604,1566.6c0,23.3-18.8,42.1-42.1,42.1c-23.2,0-42.1-18.8-42.1-42.1c0-23.2,18.8-42.1,42.1-42.1
		C585.2,1524.5,604,1543.4,604,1566.6z"/>
	<path class="st40" d="M585.8,1566.6c0,13.2-10.7,23.8-23.8,23.8c-13.2,0-23.8-10.7-23.8-23.8c0-13.2,10.7-23.8,23.8-23.8
		C575.1,1542.8,585.8,1553.4,585.8,1566.6z"/>
</g>
<g>
	<path class="st10" d="M2793.2,3345.2c0,45.8-37.1,82.9-82.8,82.9c-45.8,0-82.8-37.1-82.8-82.9c0-45.8,37.1-82.8,82.8-82.8
		C2756.1,3262.4,2793.2,3299.4,2793.2,3345.2z"/>
	<path class="st38" d="M2772.1,3345.2c0,34.1-27.7,61.8-61.8,61.8c-34.1,0-61.8-27.6-61.8-61.8c0-34.1,27.7-61.8,61.8-61.8
		C2744.5,3283.4,2772.1,3311.1,2772.1,3345.2z"/>
	<path class="st39" d="M2752.4,3345.2c0,23.3-18.8,42.1-42.1,42.1c-23.2,0-42.1-18.8-42.1-42.1c0-23.2,18.8-42.1,42.1-42.1
		C2733.6,3303.1,2752.4,3321.9,2752.4,3345.2z"/>
	<path class="st40" d="M2734.2,3345.2c0,13.2-10.7,23.8-23.8,23.8c-13.2,0-23.8-10.7-23.8-23.8c0-13.2,10.7-23.8,23.8-23.8
		C2723.5,3321.4,2734.2,3332,2734.2,3345.2z"/>
</g>
<g>
	<path class="st10" d="M6071.8,1934.7c0,30.2-24.5,54.7-54.7,54.7c-30.2,0-54.7-24.5-54.7-54.7s24.5-54.7,54.7-54.7
		C6047.3,1879.9,6071.8,1904.4,6071.8,1934.7z"/>
	<path class="st38" d="M6057.9,1934.7c0,22.5-18.3,40.8-40.8,40.8c-22.5,0-40.8-18.3-40.8-40.8s18.3-40.8,40.8-40.8
		C6039.6,1893.8,6057.9,1912.1,6057.9,1934.7z"/>
	<path class="st39" d="M6044.9,1934.7c0,15.4-12.5,27.8-27.8,27.8c-15.4,0-27.8-12.4-27.8-27.8s12.4-27.8,27.8-27.8
		C6032.5,1906.8,6044.9,1919.3,6044.9,1934.7z"/>
	<path class="st40" d="M6032.8,1934.7c0,8.7-7.1,15.7-15.8,15.7c-8.7,0-15.7-7-15.7-15.7s7.1-15.7,15.7-15.7
		C6025.8,1918.9,6032.8,1926,6032.8,1934.7z"/>
</g>
<g>
	<path class="st10" d="M5236.7,314.3c0,30.2-24.5,54.7-54.7,54.7c-30.2,0-54.7-24.5-54.7-54.7s24.5-54.7,54.7-54.7
		C5212.2,259.5,5236.7,284,5236.7,314.3z"/>
	<path class="st38" d="M5222.7,314.3c0,22.5-18.3,40.8-40.8,40.8c-22.5,0-40.8-18.3-40.8-40.8c0-22.5,18.3-40.8,40.8-40.8
		C5204.5,273.5,5222.7,291.7,5222.7,314.3z"/>
	<path class="st39" d="M5209.8,314.3c0,15.4-12.5,27.8-27.8,27.8c-15.4,0-27.8-12.4-27.8-27.8c0-15.4,12.4-27.8,27.8-27.8
		C5197.3,286.5,5209.8,298.9,5209.8,314.3z"/>
	<path class="st40" d="M5197.7,314.3c0,8.7-7.1,15.7-15.8,15.7c-8.7,0-15.7-7-15.7-15.7c0-8.7,7.1-15.7,15.7-15.7
		C5190.6,298.5,5197.7,305.6,5197.7,314.3z"/>
</g>
<g>
	<path class="st10" d="M4432.1,3612.3c0,30.2-24.5,54.7-54.7,54.7c-30.2,0-54.7-24.5-54.7-54.7s24.5-54.7,54.7-54.7
		C4407.6,3557.6,4432.1,3582.1,4432.1,3612.3z"/>
	<path class="st38" d="M4418.2,3612.3c0,22.5-18.3,40.8-40.8,40.8c-22.5,0-40.8-18.3-40.8-40.8s18.3-40.8,40.8-40.8
		C4399.9,3571.5,4418.2,3589.8,4418.2,3612.3z"/>
	<path class="st39" d="M4405.2,3612.3c0,15.4-12.5,27.8-27.8,27.8c-15.4,0-27.8-12.4-27.8-27.8s12.4-27.8,27.8-27.8
		C4392.8,3584.5,4405.2,3597,4405.2,3612.3z"/>
	<path class="st40" d="M4393.2,3612.3c0,8.7-7.1,15.7-15.8,15.7c-8.7,0-15.7-7-15.7-15.7s7.1-15.7,15.7-15.7
		C4386.1,3596.6,4393.2,3603.6,4393.2,3612.3z"/>
</g>
<g>
	<path class="st10" d="M5040.5,3700c0,30.2-24.5,54.7-54.7,54.7c-30.2,0-54.7-24.5-54.7-54.7c0-30.2,24.5-54.7,54.7-54.7
		C5016,3645.2,5040.5,3669.7,5040.5,3700z"/>
	<path class="st38" d="M5026.6,3700c0,22.5-18.3,40.8-40.8,40.8c-22.5,0-40.8-18.3-40.8-40.8c0-22.5,18.3-40.8,40.8-40.8
		C5008.3,3659.2,5026.6,3677.4,5026.6,3700z"/>
	<path class="st39" d="M5013.6,3700c0,15.4-12.5,27.8-27.8,27.8c-15.4,0-27.8-12.4-27.8-27.8s12.4-27.8,27.8-27.8
		C5001.1,3672.2,5013.6,3684.6,5013.6,3700z"/>
	<path class="st40" d="M5001.5,3700c0,8.7-7.1,15.7-15.8,15.7c-8.7,0-15.7-7-15.7-15.7c0-8.7,7.1-15.7,15.7-15.7
		C4994.5,3684.2,5001.5,3691.3,5001.5,3700z"/>
</g>
<g>
	<path class="st10" d="M4575.8,3975c0,30.2-24.5,54.7-54.7,54.7c-30.2,0-54.7-24.5-54.7-54.7c0-30.2,24.5-54.7,54.7-54.7
		C4551.3,3920.3,4575.8,3944.8,4575.8,3975z"/>
	<path class="st38" d="M4561.9,3975c0,22.5-18.3,40.8-40.8,40.8c-22.5,0-40.8-18.3-40.8-40.8c0-22.5,18.3-40.8,40.8-40.8
		C4543.6,3934.2,4561.9,3952.5,4561.9,3975z"/>
	<path class="st39" d="M4548.9,3975c0,15.4-12.5,27.8-27.8,27.8c-15.4,0-27.8-12.4-27.8-27.8c0-15.4,12.4-27.8,27.8-27.8
		C4536.4,3947.2,4548.9,3959.7,4548.9,3975z"/>
	<path class="st40" d="M4536.8,3975c0,8.7-7.1,15.7-15.8,15.7c-8.7,0-15.7-7-15.7-15.7c0-8.7,7.1-15.7,15.7-15.7
		C4529.7,3959.3,4536.8,3966.3,4536.8,3975z"/>
</g>
<g>
	<path class="st10" d="M5291.4,1678.8c0,30.2-24.5,54.7-54.7,54.7c-30.2,0-54.7-24.5-54.7-54.7c0-30.2,24.5-54.7,54.7-54.7
		C5266.9,1624.1,5291.4,1648.6,5291.4,1678.8z"/>
	<path class="st38" d="M5277.5,1678.8c0,22.5-18.3,40.8-40.8,40.8c-22.5,0-40.8-18.3-40.8-40.8c0-22.5,18.3-40.8,40.8-40.8
		C5259.2,1638,5277.5,1656.3,5277.5,1678.8z"/>
	<path class="st39" d="M5264.5,1678.8c0,15.4-12.5,27.8-27.8,27.8c-15.4,0-27.8-12.4-27.8-27.8c0-15.4,12.4-27.8,27.8-27.8
		C5252,1651,5264.5,1663.5,5264.5,1678.8z"/>
	<path class="st40" d="M5252.4,1678.8c0,8.7-7.1,15.7-15.8,15.7c-8.7,0-15.7-7-15.7-15.7s7.1-15.7,15.7-15.7
		C5245.4,1663.1,5252.4,1670.1,5252.4,1678.8z"/>
</g>
<g>
	<path class="st10" d="M5454,206.4c0,30.2-24.5,54.7-54.7,54.7c-30.2,0-54.7-24.5-54.7-54.7s24.5-54.7,54.7-54.7
		C5429.5,151.6,5454,176.1,5454,206.4z"/>
	<path class="st38" d="M5440.1,206.4c0,22.5-18.3,40.8-40.8,40.8c-22.5,0-40.8-18.3-40.8-40.8c0-22.5,18.3-40.8,40.8-40.8
		C5421.8,165.5,5440.1,183.8,5440.1,206.4z"/>
	<path class="st39" d="M5427.1,206.4c0,15.4-12.5,27.8-27.8,27.8c-15.4,0-27.8-12.4-27.8-27.8c0-15.4,12.4-27.8,27.8-27.8
		C5414.6,178.5,5427.1,191,5427.1,206.4z"/>
	<path class="st40" d="M5415,206.4c0,8.7-7.1,15.7-15.8,15.7c-8.7,0-15.7-7-15.7-15.7c0-8.7,7.1-15.7,15.7-15.7
		C5408,190.6,5415,197.7,5415,206.4z"/>
</g>
<g>
	<ellipse class="st10" cx="3804.6" cy="647.3" rx="54.7" ry="54.7"/>
	<circle class="st38" cx="3804.6" cy="647.3" r="40.8"/>
	<path class="st39" d="M3832.4,647.3c0,15.4-12.5,27.8-27.8,27.8c-15.4,0-27.8-12.4-27.8-27.8c0-15.4,12.4-27.8,27.8-27.8
		C3820,619.5,3832.4,631.9,3832.4,647.3z"/>
	<ellipse class="st40" cx="3804.6" cy="647.3" rx="15.7" ry="15.7"/>
</g>
<g>
	<path class="st10" d="M1003.8,631.5c0,30.2-24.5,54.7-54.7,54.7c-30.2,0-54.7-24.5-54.7-54.7s24.5-54.7,54.7-54.7
		C979.3,576.8,1003.8,601.3,1003.8,631.5z"/>
	<path class="st38" d="M989.9,631.5c0,22.5-18.3,40.8-40.8,40.8c-22.5,0-40.8-18.3-40.8-40.8c0-22.5,18.3-40.8,40.8-40.8
		C971.6,590.7,989.9,609,989.9,631.5z"/>
	<path class="st39" d="M976.9,631.5c0,15.4-12.5,27.8-27.8,27.8c-15.4,0-27.8-12.4-27.8-27.8c0-15.4,12.4-27.8,27.8-27.8
		C964.4,603.7,976.9,616.2,976.9,631.5z"/>
	<path class="st40" d="M964.8,631.5c0,8.7-7.1,15.7-15.8,15.7c-8.7,0-15.7-7-15.7-15.7c0-8.7,7.1-15.7,15.7-15.7
		C957.8,615.8,964.8,622.8,964.8,631.5z"/>
</g>
<g>
	<path class="st10" d="M2931.7,4301c0,30.2-24.5,54.7-54.7,54.7c-30.2,0-54.7-24.5-54.7-54.7c0-30.2,24.5-54.7,54.7-54.7
		C2907.2,4246.3,2931.7,4270.8,2931.7,4301z"/>
	<path class="st38" d="M2917.8,4301c0,22.5-18.3,40.8-40.8,40.8c-22.5,0-40.8-18.3-40.8-40.8c0-22.5,18.3-40.8,40.8-40.8
		C2899.5,4260.2,2917.8,4278.5,2917.8,4301z"/>
	<path class="st39" d="M2904.8,4301c0,15.4-12.5,27.8-27.8,27.8c-15.4,0-27.8-12.4-27.8-27.8c0-15.4,12.4-27.8,27.8-27.8
		C2892.3,4273.2,2904.8,4285.7,2904.8,4301z"/>
	<path class="st40" d="M2892.7,4301c0,8.7-7.1,15.7-15.8,15.7c-8.7,0-15.7-7-15.7-15.7c0-8.7,7.1-15.7,15.7-15.7
		C2885.7,4285.3,2892.7,4292.3,2892.7,4301z"/>
</g>
<g>
	<path class="st10" d="M3591.3,2687.8c0,30.2-24.5,54.7-54.7,54.7c-30.2,0-54.7-24.5-54.7-54.7c0-30.2,24.5-54.7,54.7-54.7
		C3566.8,2633.1,3591.3,2657.6,3591.3,2687.8z"/>
	<path class="st38" d="M3577.4,2687.8c0,22.5-18.3,40.8-40.8,40.8c-22.5,0-40.8-18.3-40.8-40.8c0-22.5,18.3-40.8,40.8-40.8
		C3559.1,2647,3577.4,2665.2,3577.4,2687.8z"/>
	<path class="st39" d="M3564.4,2687.8c0,15.4-12.5,27.8-27.8,27.8c-15.4,0-27.8-12.4-27.8-27.8c0-15.4,12.4-27.8,27.8-27.8
		C3552,2660,3564.4,2672.4,3564.4,2687.8z"/>
	<path class="st40" d="M3552.3,2687.8c0,8.7-7.1,15.7-15.8,15.7c-8.7,0-15.7-7-15.7-15.7c0-8.7,7.1-15.7,15.7-15.7
		C3545.3,2672,3552.3,2679.1,3552.3,2687.8z"/>
</g>
<g>
	<path class="st10" d="M6056.1,2824.5c0,30.2-24.5,54.7-54.7,54.7c-30.2,0-54.7-24.5-54.7-54.7c0-30.2,24.5-54.7,54.7-54.7
		C6031.6,2769.8,6056.1,2794.3,6056.1,2824.5z"/>
	<path class="st38" d="M6042.2,2824.5c0,22.5-18.3,40.8-40.8,40.8c-22.5,0-40.8-18.3-40.8-40.8c0-22.5,18.3-40.8,40.8-40.8
		C6023.9,2783.7,6042.2,2801.9,6042.2,2824.5z"/>
	<path class="st39" d="M6029.2,2824.5c0,15.4-12.5,27.8-27.8,27.8c-15.4,0-27.8-12.5-27.8-27.8c0-15.4,12.4-27.8,27.8-27.8
		C6016.7,2796.7,6029.2,2809.1,6029.2,2824.5z"/>
	<path class="st40" d="M6017.1,2824.5c0,8.7-7.1,15.7-15.8,15.7c-8.7,0-15.7-7.1-15.7-15.7c0-8.7,7.1-15.7,15.7-15.7
		C6010,2808.7,6017.1,2815.8,6017.1,2824.5z"/>
</g>
<g>
	<path class="st10" d="M6360.9,2327.7c0,30.2-24.5,54.7-54.7,54.7c-30.2,0-54.7-24.5-54.7-54.7c0-30.2,24.5-54.7,54.7-54.7
		C6336.4,2272.9,6360.9,2297.4,6360.9,2327.7z"/>
	<path class="st38" d="M6347,2327.7c0,22.5-18.3,40.8-40.8,40.8c-22.5,0-40.8-18.3-40.8-40.8c0-22.5,18.3-40.8,40.8-40.8
		C6328.7,2286.9,6347,2305.1,6347,2327.7z"/>
	<path class="st39" d="M6334,2327.7c0,15.4-12.5,27.8-27.8,27.8c-15.4,0-27.8-12.5-27.8-27.8c0-15.4,12.4-27.8,27.8-27.8
		C6321.5,2299.9,6334,2312.3,6334,2327.7z"/>
	<path class="st40" d="M6321.9,2327.7c0,8.7-7.1,15.7-15.8,15.7c-8.7,0-15.7-7.1-15.7-15.7c0-8.7,7.1-15.7,15.7-15.7
		C6314.9,2311.9,6321.9,2319,6321.9,2327.7z"/>
</g>
<g>
	<path class="st10" d="M5822.2,2161.1c0,30.2-24.5,54.7-54.7,54.7c-30.2,0-54.7-24.5-54.7-54.7s24.5-54.7,54.7-54.7
		C5797.7,2106.4,5822.2,2130.9,5822.2,2161.1z"/>
	<path class="st38" d="M5808.3,2161.1c0,22.5-18.3,40.8-40.8,40.8c-22.5,0-40.8-18.3-40.8-40.8s18.3-40.8,40.8-40.8
		C5790,2120.3,5808.3,2138.6,5808.3,2161.1z"/>
	<path class="st39" d="M5795.3,2161.1c0,15.4-12.5,27.8-27.8,27.8c-15.4,0-27.8-12.5-27.8-27.8c0-15.4,12.4-27.8,27.8-27.8
		C5782.9,2133.3,5795.3,2145.8,5795.3,2161.1z"/>
	<path class="st40" d="M5783.3,2161.1c0,8.7-7.1,15.7-15.8,15.7c-8.7,0-15.7-7.1-15.7-15.7c0-8.7,7.1-15.7,15.7-15.7
		C5776.2,2145.4,5783.3,2152.4,5783.3,2161.1z"/>
</g>
<g>
	<path class="st10" d="M2634.3,3036.4c0,30.2-24.5,54.7-54.7,54.7c-30.2,0-54.7-24.5-54.7-54.7s24.5-54.7,54.7-54.7
		C2609.8,2981.6,2634.3,3006.1,2634.3,3036.4z"/>
	<path class="st38" d="M2620.4,3036.4c0,22.5-18.3,40.8-40.8,40.8c-22.5,0-40.8-18.3-40.8-40.8c0-22.5,18.3-40.8,40.8-40.8
		C2602.1,2995.6,2620.4,3013.8,2620.4,3036.4z"/>
	<path class="st39" d="M2607.4,3036.4c0,15.4-12.5,27.8-27.8,27.8c-15.4,0-27.8-12.5-27.8-27.8c0-15.4,12.4-27.8,27.8-27.8
		C2594.9,3008.6,2607.4,3021,2607.4,3036.4z"/>
	<path class="st40" d="M2595.3,3036.4c0,8.7-7.1,15.7-15.8,15.7c-8.7,0-15.7-7.1-15.7-15.7c0-8.7,7.1-15.7,15.7-15.7
		C2588.3,3020.6,2595.3,3027.7,2595.3,3036.4z"/>
</g>
<g>
	<path class="st10" d="M1800.3,1862.9c0,30.2-24.5,54.7-54.7,54.7c-30.2,0-54.7-24.5-54.7-54.7c0-30.2,24.5-54.7,54.7-54.7
		C1775.8,1808.1,1800.3,1832.6,1800.3,1862.9z"/>
	<path class="st38" d="M1786.4,1862.9c0,22.5-18.3,40.8-40.8,40.8c-22.5,0-40.8-18.3-40.8-40.8c0-22.5,18.3-40.8,40.8-40.8
		C1768.1,1822.1,1786.4,1840.3,1786.4,1862.9z"/>
	<path class="st39" d="M1773.4,1862.9c0,15.4-12.5,27.8-27.8,27.8c-15.4,0-27.8-12.5-27.8-27.8c0-15.4,12.4-27.8,27.8-27.8
		C1760.9,1835,1773.4,1847.5,1773.4,1862.9z"/>
	<path class="st40" d="M1761.3,1862.9c0,8.7-7.1,15.7-15.8,15.7c-8.7,0-15.7-7.1-15.7-15.7c0-8.7,7.1-15.7,15.7-15.7
		C1754.3,1847.1,1761.3,1854.2,1761.3,1862.9z"/>
</g>
<g>
	<path class="st10" d="M1884.3,1067.7c0,30.2-24.5,54.7-54.7,54.7c-30.2,0-54.7-24.5-54.7-54.7c0-30.2,24.5-54.7,54.7-54.7
		C1859.8,1013,1884.3,1037.5,1884.3,1067.7z"/>
	<path class="st38" d="M1870.4,1067.7c0,22.5-18.3,40.8-40.8,40.8c-22.5,0-40.8-18.3-40.8-40.8c0-22.5,18.3-40.8,40.8-40.8
		C1852.1,1026.9,1870.4,1045.2,1870.4,1067.7z"/>
	<path class="st39" d="M1857.4,1067.7c0,15.4-12.5,27.8-27.8,27.8c-15.4,0-27.8-12.5-27.8-27.8c0-15.4,12.4-27.8,27.8-27.8
		C1845,1039.9,1857.4,1052.4,1857.4,1067.7z"/>
	<path class="st40" d="M1845.3,1067.7c0,8.7-7.1,15.7-15.8,15.7c-8.7,0-15.7-7.1-15.7-15.7c0-8.7,7.1-15.7,15.7-15.7
		C1838.3,1052,1845.3,1059,1845.3,1067.7z"/>
</g>
<g>
	<path class="st10" d="M1898.2,709.6c0,30.2-24.5,54.7-54.7,54.7c-30.2,0-54.7-24.5-54.7-54.7c0-30.2,24.5-54.7,54.7-54.7
		C1873.7,654.9,1898.2,679.4,1898.2,709.6z"/>
	<path class="st38" d="M1884.3,709.6c0,22.5-18.3,40.8-40.8,40.8c-22.5,0-40.8-18.3-40.8-40.8c0-22.5,18.3-40.8,40.8-40.8
		C1866,668.8,1884.3,687.1,1884.3,709.6z"/>
	<path class="st39" d="M1871.3,709.6c0,15.4-12.5,27.8-27.8,27.8c-15.4,0-27.8-12.5-27.8-27.8c0-15.4,12.4-27.8,27.8-27.8
		C1858.8,681.8,1871.3,694.3,1871.3,709.6z"/>
	<path class="st40" d="M1859.2,709.6c0,8.7-7.1,15.7-15.8,15.7c-8.7,0-15.7-7.1-15.7-15.7c0-8.7,7.1-15.7,15.7-15.7
		C1852.2,693.9,1859.2,700.9,1859.2,709.6z"/>
</g>
<g>
	<path class="st10" d="M5494.8,2736.3c0,30.2-24.5,54.7-54.7,54.7c-30.2,0-54.7-24.5-54.7-54.7c0-30.2,24.5-54.7,54.7-54.7
		C5470.3,2681.6,5494.8,2706.1,5494.8,2736.3z"/>
	<path class="st38" d="M5480.9,2736.3c0,22.5-18.3,40.8-40.8,40.8c-22.5,0-40.8-18.3-40.8-40.8c0-22.5,18.3-40.8,40.8-40.8
		C5462.6,2695.5,5480.9,2713.8,5480.9,2736.3z"/>
	<path class="st39" d="M5467.9,2736.3c0,15.4-12.5,27.8-27.8,27.8c-15.4,0-27.8-12.5-27.8-27.8c0-15.4,12.4-27.8,27.8-27.8
		C5455.4,2708.5,5467.9,2720.9,5467.9,2736.3z"/>
	<path class="st40" d="M5455.8,2736.3c0,8.7-7.1,15.7-15.8,15.7c-8.7,0-15.7-7.1-15.7-15.7c0-8.7,7.1-15.7,15.7-15.7
		C5448.8,2720.6,5455.8,2727.6,5455.8,2736.3z"/>
</g>
<g>
	<ellipse class="st10" cx="3598.6" cy="925.5" rx="54.7" ry="54.7"/>
	<circle class="st38" cx="3598.6" cy="925.5" r="40.8"/>
	<path class="st39" d="M3626.4,925.5c0,15.4-12.5,27.8-27.8,27.8c-15.4,0-27.8-12.5-27.8-27.8c0-15.4,12.4-27.8,27.8-27.8
		C3613.9,897.7,3626.4,910.1,3626.4,925.5z"/>
	<ellipse class="st40" cx="3598.6" cy="925.5" rx="15.7" ry="15.7"/>
</g>
<g>
	<path class="st10" d="M5508.7,3406.7c0,30.2-24.5,54.7-54.7,54.7c-30.2,0-54.7-24.5-54.7-54.7s24.5-54.7,54.7-54.7
		C5484.2,3352,5508.7,3376.5,5508.7,3406.7z"/>
	<path class="st38" d="M5494.8,3406.7c0,22.5-18.3,40.8-40.8,40.8c-22.5,0-40.8-18.3-40.8-40.8c0-22.5,18.3-40.8,40.8-40.8
		C5476.5,3365.9,5494.8,3384.2,5494.8,3406.7z"/>
	<path class="st39" d="M5481.8,3406.7c0,15.4-12.5,27.8-27.8,27.8c-15.4,0-27.8-12.5-27.8-27.8c0-15.4,12.4-27.8,27.8-27.8
		C5469.4,3378.9,5481.8,3391.4,5481.8,3406.7z"/>
	<path class="st40" d="M5469.8,3406.7c0,8.7-7.1,15.7-15.8,15.7c-8.7,0-15.7-7.1-15.7-15.7c0-8.7,7.1-15.7,15.7-15.7
		C5462.7,3391,5469.8,3398,5469.8,3406.7z"/>
</g>
<g>
	<path class="st10" d="M761.3,273.5c0,30.2-24.5,54.7-54.7,54.7c-30.2,0-54.7-24.5-54.7-54.7s24.5-54.7,54.7-54.7
		C736.8,218.7,761.3,243.2,761.3,273.5z"/>
	<path class="st38" d="M747.4,273.5c0,22.5-18.3,40.8-40.8,40.8c-22.5,0-40.8-18.3-40.8-40.8c0-22.5,18.3-40.8,40.8-40.8
		C729.1,232.7,747.4,250.9,747.4,273.5z"/>
	<path class="st39" d="M734.4,273.5c0,15.4-12.5,27.8-27.8,27.8c-15.4,0-27.8-12.5-27.8-27.8c0-15.4,12.4-27.8,27.8-27.8
		C721.9,245.6,734.4,258.1,734.4,273.5z"/>
	<path class="st40" d="M722.3,273.5c0,8.7-7.1,15.7-15.8,15.7c-8.7,0-15.7-7.1-15.7-15.7c0-8.7,7.1-15.7,15.7-15.7
		C715.3,257.7,722.3,264.8,722.3,273.5z"/>
</g>
<g>
	<path class="st10" d="M1681.3,904.8c0,30.2-24.5,54.7-54.7,54.7c-30.2,0-54.7-24.5-54.7-54.7s24.5-54.7,54.7-54.7
		C1656.8,850.1,1681.3,874.6,1681.3,904.8z"/>
	<path class="st38" d="M1667.4,904.8c0,22.5-18.3,40.8-40.8,40.8c-22.5,0-40.8-18.3-40.8-40.8s18.3-40.8,40.8-40.8
		C1649.1,864,1667.4,882.3,1667.4,904.8z"/>
	<path class="st39" d="M1654.4,904.8c0,15.4-12.5,27.8-27.8,27.8c-15.4,0-27.8-12.5-27.8-27.8c0-15.4,12.4-27.8,27.8-27.8
		C1641.9,877,1654.4,889.5,1654.4,904.8z"/>
	<path class="st40" d="M1642.3,904.8c0,8.7-7.1,15.7-15.8,15.7c-8.7,0-15.7-7.1-15.7-15.7c0-8.7,7.1-15.7,15.7-15.7
		C1635.3,889.1,1642.3,896.2,1642.3,904.8z"/>
</g>
<g>
	<path class="st10" d="M3887.2,3891.6c0,30.2-24.5,54.7-54.7,54.7c-30.2,0-54.7-24.5-54.7-54.7s24.5-54.7,54.7-54.7
		C3862.7,3836.8,3887.2,3861.3,3887.2,3891.6z"/>
	<path class="st38" d="M3873.2,3891.6c0,22.5-18.3,40.8-40.8,40.8c-22.5,0-40.8-18.3-40.8-40.8s18.3-40.8,40.8-40.8
		C3855,3850.8,3873.2,3869,3873.2,3891.6z"/>
	<path class="st39" d="M3860.3,3891.6c0,15.4-12.5,27.8-27.8,27.8c-15.4,0-27.8-12.5-27.8-27.8c0-15.4,12.4-27.8,27.8-27.8
		C3847.8,3863.8,3860.3,3876.2,3860.3,3891.6z"/>
	<path class="st40" d="M3848.2,3891.6c0,8.7-7.1,15.7-15.8,15.7c-8.7,0-15.7-7.1-15.7-15.7s7.1-15.7,15.7-15.7
		C3841.1,3875.8,3848.2,3882.9,3848.2,3891.6z"/>
</g>
<g>
	<path class="st10" d="M4871.4,2116.8c0,85.1-69,154.1-154.1,154.1c-85.1,0-154.1-69-154.1-154.1c0-85.1,69-154.1,154.1-154.1
		C4802.4,1962.7,4871.4,2031.6,4871.4,2116.8z"/>
	<ellipse class="st38" cx="4717.2" cy="2116.8" rx="114.9" ry="114.9"/>
	<ellipse class="st39" cx="4717.2" cy="2116.8" rx="78.3" ry="78.3"/>
	<circle class="st40" cx="4717.2" cy="2116.8" r="44.3"/>
</g>
<g>
	<path class="st10" d="M5123.3,4029.8c0,85.1-69,154.1-154.1,154.1c-85.1,0-154.1-69-154.1-154.1c0-85.1,69-154.1,154.1-154.1
		C5054.3,3875.6,5123.3,3944.6,5123.3,4029.8z"/>
	<ellipse class="st38" cx="4969.1" cy="4029.8" rx="114.9" ry="114.9"/>
	<circle class="st39" cx="4969.1" cy="4029.8" r="78.3"/>
	<circle class="st40" cx="4969.1" cy="4029.8" r="44.3"/>
</g>
<g>
	<path class="st10" d="M2524.7,2185.2c0,85.1-69,154.1-154.1,154.1c-85.1,0-154.1-69-154.1-154.1c0-85.1,69-154.1,154.1-154.1
		C2455.7,2031.1,2524.7,2100.1,2524.7,2185.2z"/>
	<ellipse class="st38" cx="2370.6" cy="2185.2" rx="114.9" ry="114.9"/>
	<ellipse class="st39" cx="2370.6" cy="2185.2" rx="78.3" ry="78.3"/>
	<circle class="st40" cx="2370.6" cy="2185.2" r="44.3"/>
</g>
<g>
	<path class="st10" d="M1181.5,2212.9c0,85.1-69,154.1-154.1,154.1c-85.1,0-154.1-69-154.1-154.1c0-85.1,69-154.1,154.1-154.1
		C1112.5,2058.7,1181.5,2127.7,1181.5,2212.9z"/>
	<ellipse class="st38" cx="1027.4" cy="2212.9" rx="114.9" ry="114.9"/>
	<ellipse class="st39" cx="1027.4" cy="2212.9" rx="78.3" ry="78.3"/>
	<circle class="st40" cx="1027.4" cy="2212.9" r="44.3"/>
</g>
<g>
	<g>
		<path class="st29" d="M4787.8,3156.7c-147.4,0.3-267.1-118.9-267.3-266.3c-0.3-147.4,118.9-267,266.3-267.3
			c147.4-0.3,267.1,118.9,267.3,266.3C5054.4,3036.8,4935.2,3156.5,4787.8,3156.7z"/>
		<g>
			<path class="st41" d="M4703.3,3143.2c-34.4-71.1-54.8-158.5-55-253c-0.2-94.5,19.9-181.9,53.9-253.2
				c-42.9,14.4-80.9,39.4-111,71.9c-16.9,55.2-26.3,116.6-26.2,181.4c0.1,64.8,9.8,126.2,26.9,181.3
				C4622.2,3104.1,4660.3,3128.9,4703.3,3143.2z"/>
			<path class="st41" d="M4969,2694.6c-19.5-18.1-41.6-33.4-65.8-45.1c-30.5,68.8-48.1,151.4-48,240.2c0.2,88.8,18.3,171.3,49,240
				c24.1-11.8,46.2-27.1,65.5-45.3c-19.9-58.6-31.2-124.8-31.3-194.9C4938.3,2819.5,4949.4,2753.3,4969,2694.6z"/>
			<path class="st42" d="M4850.3,2630.7c-20.4-4.9-41.6-7.6-63.5-7.5c-5.4,0-10.7,0.2-16,0.5c-38.1,73.6-60.8,166-60.6,266.4
				c0.2,100.5,23.3,192.8,61.6,266.2c5.3,0.3,10.6,0.5,16,0.5c21.9,0,43.2-2.8,63.6-7.8c-36.2-72.2-57.9-161.8-58-259
				C4793.2,2792.7,4814.4,2703,4850.3,2630.7z"/>
		</g>
		<path class="st41" d="M4889.4,2845c-44.2,0.1-80-35.6-80.1-79.7c-0.1-44.1,35.6-80,79.7-80c44.1-0.1,80,35.6,80.1,79.7
			C4969.2,2809.1,4933.5,2844.9,4889.4,2845z"/>
		<path class="st41" d="M4616,2913.9c-28,0.1-50.8-22.6-50.8-50.6c-0.1-28,22.6-50.8,50.6-50.8c28-0.1,50.8,22.6,50.8,50.7
			C4666.7,2891.1,4644,2913.9,4616,2913.9z"/>
		<path class="st41" d="M4943.2,2981.7c-21.7,0.1-39.3-17.5-39.3-39.2c0-21.7,17.5-39.3,39.2-39.3c21.7,0,39.3,17.5,39.3,39.2
			C4982.5,2964.1,4964.9,2981.7,4943.2,2981.7z"/>
		<path class="st41" d="M4720.8,2764.1c-21.7,0.1-39.3-17.5-39.3-39.2c-0.1-21.7,17.5-39.3,39.2-39.3c21.7,0,39.3,17.5,39.3,39.2
			C4760.1,2746.4,4742.5,2764.1,4720.8,2764.1z"/>
		<path class="st42" d="M4766.1,3109.2c-54.5,0.1-98.8-44-98.9-98.5c-0.1-54.5,44-98.8,98.5-98.9c54.5-0.1,98.8,44,98.9,98.5
			C4864.7,3064.9,4820.6,3109.1,4766.1,3109.2z"/>
		<path class="st43" d="M4922.8,2772.9c0.3,136.3-110,246.9-246.2,247.2c-52.8,0.1-101.7-16.5-141.9-44.7
			c35.7,105.6,135.5,181.5,253.1,181.3c147.3-0.3,266.6-120,266.3-267.3c-0.2-112.9-70.6-209-169.7-247.8
			C4908.5,2679.6,4922.7,2724.6,4922.8,2772.9z"/>
	</g>
</g>
</svg>
