<?xml version="1.0" encoding="utf-8"?>
<!-- Generator: Adobe Illustrator 21.1.0, SVG Export Plug-In . SVG Version: 6.00 Build 0)  -->
<svg version="1.1" id="Layer_1" xmlns="http://www.w3.org/2000/svg" xmlns:xlink="http://www.w3.org/1999/xlink" x="0px" y="0px"
	 viewBox="0 0 132 132" style="enable-background:new 0 0 132 132;" xml:space="preserve">
<style type="text/css">
	.st0{fill:#73D1D9;}
	.st1{fill:#3EA92A;}
	.st2{fill:url(#SVGID_1_);}
</style>
<g>
	<g>
		<g>
			<g>
				<circle class="st0" cx="66" cy="66" r="48.8"/>
			</g>
			<g>
				<g>
					<path class="st1" d="M24.7,48.8c0.8,0.7-0.2,3.2,0.1,4.1c0.2,0.8,1.1,2.5,1.8,3c0.4,0.2,1.4,0.5,1.7,0.3
						c0.3-0.2,0.3-1.1,0.2-1.3c-0.2-0.8-2-1.6-2.2-2.3c-0.3-0.7-0.5-2.5,0-3c0.1-0.2,0.8-0.3,1-0.1c0.5,0.4-0.1,2.2,0.2,2.9
						c0.5,1.1,3.3,2.4,3.4,3.7c0.1,0.4-1,1.1-1,1.6c0,1,1,2.7,1.8,3.3c0.8,0.5,3,1.2,3.8,0.7c0.1-0.1,0-0.8,0.2-0.9
						c0.4-0.2,1.3,0.1,1.7,0.4c0.2,0.2-0.2,1,0.1,1.3c0.5,0.5,2.4-0.1,3.1,0.3c1.1,0.5,1.9,3,3,3.6c0.8,0.5,3.2-0.3,3.8,0.4
						c0.5,0.5,0.4,2,0.1,2.6c-0.3,0.8-2.1,1.2-2.5,2c-0.5,0.9-0.6,3.1-0.3,4.1c0.5,1.5,3.2,3.5,3.8,5c0.2,0.4-0.1,1.4,0.2,1.7
						c0.3,0.3,1.3-0.2,1.6-0.1c0.8,0.3,2.4,1.4,2.8,2.2c0.9,2-1.7,7.1-0.2,8.8c0.1,0.2,0.9-0.2,1,0c0.6,0.7-0.8,2.7-0.6,3.6
						c0.2,0.6,1.3,1.3,1.4,1.8c0.4,1.1-0.1,3.4,0,4.5c0.1,2,0.3,3.9,5.2,6.1c0.7,0.3,3.3,0.5,2.9-0.4c-0.2-0.6-1.7-1.2-1.9-1.8
						c-0.2-0.8,1.2-2.4,0.8-3.1c-0.2-0.3-1.1,0-1.4-0.2c-0.3-0.2-0.8-0.7-0.8-1c0-0.4,1-0.7,1.1-1c0.1-0.2,0.1-0.5,0-0.6
						c-0.1-0.3-1-0.3-1.3-0.6c-0.2-0.1-0.2-0.8,0-0.9c1.2-1.1,3.4,0.3,5.5-3c0.8-1.2,3-3.1,3.3-4.4c0.2-0.9-1-2.8-0.8-3.7
						c0.1-0.3,0.5-0.8,0.7-0.9c0.7-0.3,2.2,0.7,3,0.4c0.6-0.1,1.8-0.9,2.1-1.4c0.8-1.4,0-4.9,0.7-6.4c0.4-0.8,2.1-1.9,2.4-2.7
						c0.1-0.4,0.3-1.4,0-1.6c-0.8-0.5-0.5-0.4-3-2.3c-1.1-0.8-4.1-0.3-5.4-0.4c-0.8-0.1-2.3-0.4-2.7-1.1c-0.3-0.5,0.4-1.9,0.2-2.5
						c-0.2-0.6-0.8-1.7-1.4-1.9c-0.7-0.4-2.5,0.2-3.2-0.2c-0.8-0.4-1.3-2.6-2.1-3.1c-0.2-0.2-0.8-0.2-1.1,0
						c-0.1,0.1-0.1,0.6-0.2,0.7c-0.6,0.4-2.2,0.4-2.9,0.1c-1.4-0.8-0.8-2.3-6.3,0.6c-0.9,0.5-3.4,0.2-4.1-0.6
						c-0.7-0.8,0.6-3.5-0.1-4.3c-0.4-0.6-2.6,0-2.9-0.7c-0.4-0.6,1.3-2,1-2.7c-0.2-0.3-0.9-0.5-1.3-0.5c-1,0.2-2.5,2.1-3.5,2.4
						c-1.9,0.5-8.3-3.5,1.7-7.5c1.6-0.6,5.5-1.5,6.7-0.3c0.3,0.3-0.3,1.3-0.1,1.7c0.2,0.4,1.4,1,1.7,0.8c0.6-0.5-0.1-2.2,0.3-2.9
						c0.7-1.2,3.5-2.4,4.3-3.6c0.2-0.2,0.1-0.9,0.2-1.1c1-1.6,4.5-3.2,5.8-4.4c0.6-0.7,1.2-2.7,2-2.9c0.4-0.1,1,0.8,1.4,0.8
						c0.3-0.1,0.8-0.5,0.8-0.8c-0.1-0.4-1.2-0.5-1.3-0.8c-0.2-0.4,0.1-1.8,1.8-0.3c1.7,1.6,2.1-0.2,2.8-0.4c0.2-0.1,0.7,0.3,0.7,0.5
						c0,0.2-0.5,0.3-0.6,0.5c-0.1,0.3-0.1,1,0,1.3c0.4,0.6,2.3,1.3,3,1c0.4-0.2,0.7-1.3,0.4-1.7c-0.2-0.5-1.5-0.3-1.7-0.7
						c-0.1-0.2-0.1-0.5,0-0.7c0.1-0.3,1-0.3,1.3-0.6c0.2-0.3,0.2-1.2,0-1.6c-0.2-0.5-1.5-0.9-1.7-1.3c-0.4-0.6,0.3-2.5-0.3-2.8
						c-0.5-0.3-1.6,0.9-2.2,1c-0.2,0-0.8,0.1-1-0.1c-0.3-0.3,0.2-1.3,0-1.6c-0.5-0.8-2.5-1.4-3.4-1.3c-0.5,0.1-1.4,0.8-1.7,1.1
						c-0.4,0.8,0.6,3,0,3.7c-0.4,0.5-2,0-2.5,0.4c-0.5,0.4-0.8,2-1.3,2.3c-0.2,0.1-0.8,0.4-1,0.2c-0.5-0.5,0.5-2.3,0-2.8
						c-0.8-0.8-8.5-0.6-0.9-4.5c0.8-0.4,2.5-1.8,3.3-1.4c0.4,0.1,0.1,1.3,0.4,1.4c0.3,0.2,1-0.1,1.3-0.3c0.2-0.2-0.1-1,0.2-1.1
						c0.2-0.1,0.9,0.2,1.1,0.1c0.7-0.3,1.1-1.8,1.7-2.2c0.8-0.5,3.7-0.6,3.7-0.6s0.8,0.7,0.7,1c-0.1,0.9-3,1.4-2.8,2.2
						c0.2,1,3.2,1.5,4.3,1c0.3-0.1,0.3-1,0.6-1.3c0.4-0.3,1.9,0.1,2.3-0.2c0.3-0.2,0.6-1.2,0.4-1.6c-0.2-0.3-1-0.1-1.1-0.4
						c-0.2-0.3-0.1-1.6-0.1-1.6s-6.8-5.7-9.4-0.8c-0.2,0.5,0.2,1.6-0.2,2c-0.4,0.3-1.6,0.3-2,0c-0.3-0.3-0.2-1.2-0.1-1.6
						c0.2-0.5,1.8-0.8,1.7-1.3c-0.3-0.8-2.8-0.6-3.6-0.2c-0.4,0.2-1,1-0.9,1.4c0.1,0.2,0.7-0.1,0.9,0.1c0.2,0.2,0.5,1.1,0.2,1.4
						c-0.4,0.4-1.8-0.5-2.2-0.1c-0.2,0.1-0.1,0.7-0.2,0.8c-0.7,0.5-2.7,0.7-3.3,0.1c-0.2-0.2-0.2-1.2,0.1-1.4c0.5-0.4,1.8,0.2,2.3,0
						c0.7-0.1,1.5-0.9,1.5-1.3c0-0.3-0.6-0.7-0.9-0.7c-0.3,0-0.7,0.6-0.9,0.8c-0.4,0.4,0,0.5-2.1-1.2c-0.7-0.5-3.5-0.1-3.5-0.1
						l-1.9,1.9l1.6,0.1L45,25.6c0,0,2.1-0.2,2.5,0.2c0.2,0.1,0,0.5-0.1,0.7c-0.5,0.5-2.9,0.6-2.9,0.6l-0.9-1.4l-2.1-0.6L40,24.8
						c-7.5,4.7-13.6,11.5-17.6,19.4l0.2,0.4C22.6,44.6,22.8,47.1,24.7,48.8z"/>
				</g>
				<g>
					<ellipse class="st1" cx="58.9" cy="42.2" rx="0.9" ry="0.7"/>
				</g>
				<g>
					<path class="st1" d="M61.8,41.2c-0.3,0.1-1.1-0.3-1.4,0c-0.1,0.2,0.2,1,0.4,1.1c0.2,0.1,0.8,0.3,1.1,0.2c0.2-0.2,0.1-0.9,0.4-1
						c0.2-0.1,0.8,0.5,1,0.4c0.4-0.2,0.3-1.4,0-1.7c-0.2-0.2-0.8-0.2-1,0C61.9,40.4,61.9,41,61.8,41.2z"/>
				</g>
				<g>
					<path class="st1" d="M94.3,32.5c0.3,0.4,0.3,1.4,0.7,1.7c0.4,0.3,1.7-0.7,2-0.4c0.4,0.3,0.4,1.7,0.1,2.1
						c-0.7,0.7-2.9-0.2-3.8,0.3c-0.8,0.4-1.2,2.3-1.9,2.7c-0.5,0.3-2-0.5-2.4-0.1s-0.6,1.7-0.3,2.2c0.1,0.2,0.7,0,0.8,0.2
						c0.2,0.3,0.2,1.2,0,1.4c-0.7,0.6-2.7-0.2-3.6-0.2c-0.5,0-1.6,0.2-1.6,1.6c0,0.7-0.1,2.2,0.4,2.8c0.3,0.4,1.4,0.6,1.9,0.6
						c0.8-0.1,2.4-0.9,3.1-1.4c0.8-0.6,1.4-2.7,2.3-3.1c0.5-0.2,1.8,0.6,2.3,0.4c0.4-0.2,0.8-1.6,1.3-1.6c0.4,0.1,0.2,1.1,0.4,1.4
						c0.6,0.8,2.9,1.1,3.3,2c0.1,0.4-0.8,1.5-0.4,1.9c0.1,0.1,0.3,0.2,0.4,0.1c0.6-0.2,1.4-2,1.4-2s-2.2-1.6-2.6-2.3
						c-0.2-0.3-0.6-1.1-0.4-1.4c0.3-0.4,1.6-0.3,2-0.1c0.7,0.2,1.7,1.2,2,1.8c0.2,0.5,0,1.7,0.3,2.1c0.3,0.5,1.4,1.9,1.9,1.6
						c0.8-0.4,0.2-2.1,1.8-3.1c0,0-0.1,1.6,0.1,2.1c0.2,0.5,0.8,1.3,1.3,1.6c1,0.4,4-0.3,4-0.3c-3.1-7.5-8-14-14.2-19l-0.5,1
						C96.3,29.2,91.9,29.7,94.3,32.5z"/>
				</g>
				<g>
					<path class="st1" d="M112.4,51.2c0,0-4.2,0.6-5.6,0.2c-0.6-0.2-1.3-1.3-1.8-1.6c-0.6-0.2-2.1-0.4-2.6,0c-0.2,0.2-0.1,1-0.3,1.3
						c-1.1,1.1-3.8,0.6-6-1.4c-0.4-0.5,0.5-2.2,0-2.6c-1-1.1-4.3-0.1-5.7,0.4c-0.4,0.2-0.9,0.8-1.3,0.9c-0.9,0.3-2.9-0.2-3.8,0.1
						c-0.6,0.2-1.8,0.9-2,1.4c-0.2,0.5,0.3,1.9,0,2.4c-0.8,1.4-4.7,2.3-5.3,3.8c-0.2,0.4,0,1.2,0.3,1.4c0.2,0.2,0.9,0,1.1,0.2
						c0.3,0.4,0.1,1.5-0.3,1.8c-0.1,0.2-0.8-0.1-0.9,0.1c-0.8,0.8-0.4,3.2-0.1,4.3c0.6,1.7,3.1,4.8,4.7,5.5c0.5,0.2,1.8,0.3,2.2-0.1
						c0.1-0.1,0-0.5,0.1-0.6c0.7-0.6,2.8,0.4,3.7,0c0.3-0.1,0.4-0.9,0.7-1.1c0.5-0.3,1.9-0.4,2.4-0.1c0.4,0.2,0.7,1.4,1,1.6
						c0.6,0.3,2.1-0.4,2.6,0c0.8,0.8,0,3.5,0.3,4.7c0.4,1.5,2.9,3.8,3,5.4c0.1,1-1.4,2.7-1.7,3.7c-0.1,0.4-0.1,1.3,0,1.7
						c0.2,0.5,1.4,0.9,1.7,1.4c0.4,0.8-0.4,2.9-0.1,3.8c0.2,0.6,1.4,1.4,1.6,2c0.3,0.9,0,4,0,4h4.2c6.4-8.2,10.1-18.4,10.1-29.6
						C114.8,60.8,113.9,55.9,112.4,51.2z"/>
				</g>
			</g>
		</g>
		<g>
			
				<linearGradient id="SVGID_1_" gradientUnits="userSpaceOnUse" x1="17.25" y1="68" x2="66" y2="68" gradientTransform="matrix(1 0 0 -1 0 134)">
				<stop  offset="0" style="stop-color:#1A171B;stop-opacity:0.5"/>
				<stop  offset="2.616996e-02" style="stop-color:#1A171B;stop-opacity:0.4869"/>
				<stop  offset="1" style="stop-color:#1A171B;stop-opacity:0"/>
			</linearGradient>
			<path class="st2" d="M42.4,66c0,34,23.6,48.8,23.6,48.8c-26.9,0-48.8-21.8-48.8-48.8S39.1,17.2,66,17.2
				C66,17.2,42.4,33.2,42.4,66z"/>
		</g>
	</g>
</g>
</svg>
