<?xml version="1.0" encoding="utf-8"?>
<!-- Generator: Adobe Illustrator 21.1.0, SVG Export Plug-In . SVG Version: 6.00 Build 0)  -->
<svg version="1.1" id="Layer_1" xmlns="http://www.w3.org/2000/svg" xmlns:xlink="http://www.w3.org/1999/xlink" x="0px" y="0px"
	 viewBox="0 0 132 132" style="enable-background:new 0 0 132 132;" xml:space="preserve">
<style type="text/css">
	.st0{fill:#73D1D9;}
	.st1{fill:#3EA92A;}
	.st2{fill:url(#SVGID_1_);}
</style>
<g>
	<g>
		<g>
			<g>
				<circle class="st0" cx="66" cy="66" r="65"/>
			</g>
			<g>
				<g>
					<path class="st1" d="M10.9,43.1c1,0.9-0.3,4.2,0.1,5.5c0.3,1.1,1.5,3.3,2.4,4c0.5,0.3,1.8,0.7,2.3,0.4c0.4-0.3,0.4-1.4,0.3-1.8
						c-0.3-1-2.6-2.1-3-3.1c-0.4-0.9-0.7-3.3,0-4c0.2-0.3,1.1-0.4,1.4-0.1c0.7,0.6-0.1,3,0.3,3.9c0.7,1.5,4.4,3.2,4.5,4.9
						c0.1,0.6-1.3,1.5-1.3,2.1c0,1.3,1.4,3.6,2.4,4.4c1,0.7,4,1.6,5,0.9c0.2-0.2,0-1,0.3-1.2c0.5-0.3,1.8,0.1,2.2,0.5
						c0.3,0.3-0.2,1.4,0.1,1.7c0.7,0.7,3.2-0.1,4.1,0.4c1.4,0.7,2.6,4,4,4.8c1.1,0.6,4.2-0.4,5.1,0.5c0.6,0.6,0.5,2.7,0.1,3.5
						c-0.4,1-2.8,1.6-3.3,2.6c-0.7,1.2-0.8,4.2-0.4,5.5c0.6,2,4.2,4.7,5,6.7c0.2,0.5-0.2,1.9,0.3,2.3c0.4,0.4,1.7-0.3,2.2-0.1
						c1.1,0.4,3.2,1.9,3.7,3c1.2,2.7-2.2,9.5-0.3,11.7c0.2,0.3,1.2-0.3,1.4,0c0.8,0.9-1.1,3.6-0.8,4.8c0.2,0.8,1.7,1.7,1.9,2.4
						c0.5,1.4-0.1,4.5,0,6c0.2,2.7,0.4,5.2,6.9,8.1c0.9,0.4,4.4,0.7,3.9-0.6c-0.3-0.8-2.3-1.6-2.6-2.4c-0.3-1,1.6-3.2,1-4.1
						c-0.3-0.4-1.5,0-1.9-0.3c-0.4-0.2-1.1-0.9-1-1.3c0-0.5,1.3-0.9,1.5-1.4c0.1-0.2,0.1-0.6,0-0.8c-0.2-0.4-1.4-0.4-1.7-0.8
						c-0.2-0.2-0.2-1,0-1.2c1.6-1.4,4.6,0.4,7.3-4c1-1.6,4-4.1,4.4-5.9c0.3-1.2-1.3-3.7-1-4.9c0.1-0.4,0.6-1,0.9-1.2
						c0.9-0.4,3,0.9,4,0.6c0.8-0.2,2.4-1.2,2.8-1.9c1.1-1.9,0-6.6,0.9-8.6c0.5-1.1,2.8-2.5,3.2-3.6c0.2-0.5,0.4-1.9,0-2.2
						c-1-0.7-0.6-0.5-4-3.1c-1.4-1.1-5.4-0.4-7.2-0.6c-1-0.1-3.1-0.6-3.6-1.4c-0.4-0.7,0.5-2.5,0.3-3.3c-0.2-0.8-1.1-2.2-1.8-2.6
						c-0.9-0.5-3.3,0.3-4.2-0.3c-1.1-0.6-1.7-3.5-2.8-4.1c-0.3-0.2-1.1-0.2-1.4,0c-0.2,0.1-0.1,0.8-0.3,0.9c-0.8,0.6-3,0.6-3.9,0.1
						c-1.8-1-1.1-3.1-8.4,0.8c-1.2,0.6-4.5,0.2-5.4-0.8c-0.9-1.1,0.8-4.6-0.1-5.7c-0.6-0.8-3.4,0-3.9-0.9c-0.5-0.8,1.7-2.7,1.3-3.6
						c-0.2-0.4-1.2-0.7-1.7-0.6c-1.4,0.2-3.3,2.8-4.6,3.2c-2.5,0.7-11.1-4.7,2.2-10c2.1-0.8,7.3-2,8.9-0.4c0.4,0.4-0.4,1.8-0.1,2.3
						c0.3,0.5,1.8,1.4,2.3,1c0.8-0.6-0.1-3,0.4-3.9c0.9-1.6,4.7-3.2,5.7-4.8c0.2-0.3,0.1-1.2,0.3-1.5c1.3-2.1,6-4.2,7.7-5.9
						c0.8-0.9,1.6-3.6,2.7-3.9c0.5-0.1,1.4,1.1,1.9,1c0.4-0.1,1.1-0.7,1-1c-0.1-0.5-1.6-0.6-1.8-1c-0.3-0.5,0.1-2.4,2.4-0.4
						c2.3,2.1,2.8-0.3,3.7-0.5c0.3-0.1,0.9,0.4,0.9,0.6c0,0.3-0.7,0.4-0.8,0.6c-0.2,0.4-0.2,1.3,0,1.7c0.6,0.8,3.1,1.8,4,1.3
						c0.5-0.3,0.9-1.7,0.6-2.2c-0.3-0.6-2-0.4-2.3-0.9c-0.1-0.2-0.1-0.7,0-0.9c0.2-0.4,1.4-0.4,1.7-0.8c0.3-0.4,0.2-1.6,0-2.1
						c-0.3-0.7-2-1.2-2.3-1.8c-0.5-0.8,0.4-3.3-0.4-3.7c-0.7-0.4-2.2,1.2-3,1.3c-0.3,0-1.1,0.1-1.3-0.1c-0.4-0.4,0.3-1.7,0-2.2
						c-0.7-1-3.3-1.8-4.5-1.7c-0.7,0.1-1.9,1-2.2,1.5c-0.6,1.1,0.8,4,0,4.9c-0.6,0.6-2.7,0-3.3,0.5c-0.7,0.5-1,2.6-1.7,3.1
						c-0.3,0.2-1,0.5-1.3,0.3c-0.7-0.6,0.7-3.1,0-3.7c-1.1-1.1-11.3-0.8-1.2-6c1.1-0.5,3.3-2.4,4.4-1.9c0.5,0.2,0.1,1.7,0.5,1.9
						c0.4,0.2,1.4-0.1,1.7-0.4c0.3-0.3-0.1-1.3,0.3-1.5c0.3-0.2,1.2,0.3,1.5,0.1c0.9-0.4,1.5-2.4,2.3-3c1-0.7,4.9-0.8,4.9-0.8
						s1,0.9,0.9,1.3c-0.2,1.2-4,1.8-3.7,3c0.3,1.4,4.3,2,5.7,1.4c0.4-0.2,0.4-1.4,0.8-1.7c0.6-0.4,2.5,0.2,3.1-0.3
						c0.4-0.3,0.8-1.6,0.5-2.1c-0.2-0.4-1.3-0.2-1.5-0.5c-0.3-0.4-0.1-2.2-0.1-2.2s-9-7.6-12.5-1c-0.3,0.6,0.2,2.1-0.3,2.6
						c-0.5,0.4-2.1,0.4-2.6,0c-0.4-0.4-0.3-1.6-0.1-2.1c0.3-0.6,2.4-1,2.2-1.7c-0.4-1.1-3.7-0.8-4.8-0.3c-0.5,0.3-1.4,1.4-1.2,1.9
						c0.1,0.3,0.9-0.1,1.2,0.1c0.3,0.3,0.6,1.5,0.3,1.8c-0.5,0.5-2.4-0.6-3-0.1c-0.2,0.2-0.1,0.9-0.3,1c-0.9,0.7-3.6,0.9-4.4,0.1
						c-0.3-0.3-0.3-1.6,0.1-1.9c0.6-0.5,2.4,0.3,3.1,0C48,11.1,49,10,49,9.4c0-0.4-0.8-0.9-1.2-0.9c-0.4,0-0.9,0.8-1.2,1
						c-0.6,0.5,0,0.6-2.8-1.6c-0.9-0.7-4.7-0.1-4.7-0.1l-2.5,2.5l2.1,0.1L38,12.1c0,0,2.8-0.3,3.3,0.3c0.2,0.2,0,0.7-0.1,0.9
						c-0.7,0.7-3.9,0.8-3.9,0.8l-1.2-1.9l-2.8-0.8l-2-0.3c-10,6.3-18.2,15.3-23.5,25.9l0.3,0.5C8.2,37.4,8.4,40.8,10.9,43.1z"/>
				</g>
				<g>
					<ellipse class="st1" cx="56.5" cy="34.3" rx="1.2" ry="0.9"/>
				</g>
				<g>
					<path class="st1" d="M60.4,32.9c-0.4,0.2-1.5-0.4-1.8,0c-0.2,0.3,0.2,1.3,0.5,1.5c0.3,0.2,1.1,0.4,1.4,0.3
						c0.3-0.2,0.2-1.2,0.5-1.3c0.3-0.1,1,0.7,1.3,0.5c0.5-0.3,0.4-1.8,0-2.2c-0.3-0.3-1.1-0.2-1.4,0C60.6,31.9,60.6,32.7,60.4,32.9z
						"/>
				</g>
				<g>
					<path class="st1" d="M103.7,21.3c0.4,0.5,0.4,1.9,0.9,2.2c0.6,0.4,2.2-0.9,2.7-0.5c0.6,0.4,0.6,2.3,0.1,2.8
						c-0.9,0.9-3.9-0.2-5,0.4c-1,0.5-1.6,3.1-2.6,3.6c-0.7,0.4-2.6-0.6-3.2-0.1c-0.6,0.5-0.8,2.3-0.4,3c0.1,0.2,0.9,0,1,0.3
						c0.3,0.4,0.3,1.6,0,1.9c-0.9,0.8-3.6-0.3-4.8-0.3c-0.7,0-2.1,0.3-2.1,2.1c0,0.9-0.1,3,0.5,3.7c0.4,0.5,1.9,0.8,2.6,0.8
						c1.1-0.1,3.2-1.2,4.1-1.9c1-0.8,1.9-3.6,3.1-4.1c0.7-0.3,2.4,0.8,3.1,0.5c0.6-0.2,1-2.1,1.7-2.1c0.5,0.1,0.2,1.5,0.5,1.9
						c0.8,1,3.9,1.5,4.4,2.7c0.2,0.6-1,2-0.6,2.6c0.1,0.1,0.4,0.2,0.5,0.1c0.8-0.3,1.9-2.6,1.9-2.6s-2.9-2.1-3.5-3.1
						c-0.3-0.4-0.8-1.5-0.5-1.9c0.4-0.5,2.1-0.4,2.7-0.1c0.9,0.3,2.3,1.6,2.7,2.4c0.3,0.7,0,2.2,0.4,2.8c0.4,0.7,1.8,2.6,2.6,2.2
						c1.1-0.5,0.3-2.8,2.4-4.1c0,0-0.1,2.2,0.1,2.8c0.2,0.6,1.1,1.8,1.7,2.1C122,41.9,126,41,126,41c-4.1-10-10.7-18.7-18.9-25.4
						l-0.7,1.4C106.4,17,100.6,17.6,103.7,21.3z"/>
				</g>
				<g>
					<path class="st1" d="M127.9,46.3c0,0-5.6,0.8-7.4,0.2c-0.8-0.3-1.7-1.8-2.4-2.1c-0.8-0.3-2.8-0.5-3.5,0
						c-0.3,0.3-0.1,1.4-0.4,1.7c-1.5,1.4-5.1,0.8-8-1.9c-0.6-0.6,0.6-2.9,0-3.5c-1.3-1.4-5.8-0.1-7.6,0.5c-0.5,0.2-1.2,1-1.7,1.2
						c-1.2,0.4-3.9-0.3-5.1,0.1c-0.8,0.3-2.4,1.2-2.7,1.9c-0.3,0.7,0.4,2.5,0,3.2c-1,1.9-6.3,3.1-7.1,5.1c-0.2,0.5,0,1.6,0.4,1.9
						c0.3,0.3,1.2,0,1.4,0.3c0.4,0.5,0.1,2-0.4,2.4c-0.2,0.2-1-0.1-1.2,0.1c-1,1-0.6,4.3-0.1,5.7c0.8,2.3,4.1,6.4,6.3,7.3
						c0.7,0.3,2.4,0.4,3-0.1c0.1-0.1,0-0.6,0.1-0.8c0.9-0.8,3.8,0.6,4.9,0c0.4-0.2,0.5-1.2,0.9-1.4c0.7-0.4,2.5-0.5,3.2-0.1
						c0.6,0.3,0.9,1.8,1.4,2.1c0.8,0.4,2.8-0.6,3.5,0c1.1,1.1,0,4.7,0.4,6.2c0.6,2,3.9,5.1,4,7.2c0.1,1.3-1.9,3.6-2.2,4.9
						c-0.1,0.6-0.2,1.8,0,2.3c0.3,0.6,1.9,1.2,2.2,1.8c0.5,1.1-0.5,3.8-0.1,5c0.3,0.8,1.9,1.9,2.2,2.7c0.4,1.2,0,5.3,0,5.3h5.6
						C126,94.6,131,80.9,131,66C131,59.1,129.9,52.5,127.9,46.3z"/>
				</g>
			</g>
		</g>
		<g>
			<linearGradient id="SVGID_1_" gradientUnits="userSpaceOnUse" x1="1.0127" y1="66" x2="65.9895" y2="66">
				<stop  offset="0" style="stop-color:#1A171B;stop-opacity:0.5"/>
				<stop  offset="2.616996e-02" style="stop-color:#1A171B;stop-opacity:0.4869"/>
				<stop  offset="1" style="stop-color:#1A171B;stop-opacity:0"/>
			</linearGradient>
			<path class="st2" d="M34.6,66c0,45.3,31.4,65,31.4,65c-35.9,0-65-29.1-65-65C1,30.1,30.1,1,66,1C66,1,34.6,22.3,34.6,66z"/>
		</g>
	</g>
</g>
</svg>
