<?xml version="1.0" encoding="utf-8"?>
<!-- Generator: Adobe Illustrator 21.1.0, SVG Export Plug-In . SVG Version: 6.00 Build 0)  -->
<svg version="1.1" id="Layer_1" xmlns="http://www.w3.org/2000/svg" xmlns:xlink="http://www.w3.org/1999/xlink" x="0px" y="0px"
	 viewBox="0 0 132 132" style="enable-background:new 0 0 132 132;" xml:space="preserve">
<style type="text/css">
	.st0{fill:#CE6F3E;}
	.st1{fill:#F8E2B2;}
	.st2{fill:#792F10;}
	.st3{fill:#BD7E48;}
	.st4{fill:#ED5D21;}
	.st5{fill:url(#SVGID_1_);}
</style>
<g>
	<g>
		<g>
			<g>
				
					<ellipse transform="matrix(0.9224 -0.3863 0.3863 0.9224 -20.3402 30.6137)" class="st0" cx="66" cy="65.9" rx="64.9" ry="64.9"/>
			</g>
			<g>
				<g>
					<g>
						<path class="st1" d="M31.6,121.1c4.4,2.8,9.1,5,14,6.6c0.5-13.4,43.6-19.5,82.9-43.9c0.7-2.6,1.3-5.2,1.7-7.9
							C122.9,78.6,92,98.4,74.2,101C56.6,103.5,43.7,110.7,31.6,121.1z"/>
					</g>
					<g>
						<path class="st2" d="M43.3,56.6c12.2-14,12.5-2.3,18.4-6.5c3-2.1,21.9-2.2,30.1-7.1c13.6-8.1,2.4-18.8,18.2-24.6
							c-1.5-1.4-3-2.6-4.6-3.8C93,19.3,35.7,42.2,29.2,56.7c0,0-10,16-26.9,20.9c0.4,2.1,0.8,4.1,1.4,6.1
							C11.9,79.4,33.5,67.8,43.3,56.6z"/>
					</g>
					<g>
						<path class="st3" d="M101.4,11.6C96.3,8.3,90.7,5.7,84.9,4c-5.9,7.5-24,22.1-79,38.1c-1.5,3.8-2.7,7.7-3.5,11.7
							C15,46.7,56.4,24.4,101.4,11.6z"/>
					</g>
					<g>
						<path class="st2" d="M45.7,127.7c6.7,2.2,13.7,3.4,20.8,3.3c3.9-10,19-10.6,31.5-17.7c11.4-6.4,20.1-19.5,28.1-22.5
							c1-2.3,1.8-4.7,2.4-7.1c-8.5,3.1-25.3,20.9-32.2,23.7C51.2,125.5,48.4,121.8,45.7,127.7z"/>
					</g>
					<g>
						<path class="st4" d="M13.7,104.4c4.9,6.7,11,12.3,17.9,16.6c10.3-21.1,24-19.8,38.6-27.5c6.2-3.3,19.6-9.4,24.8-10.1
							c17.8-2.6,27.9-4.8,35.3-7.5c0.3-1.7,0.4-3.4,0.6-5.1c-7.4,1.1-11.7,4.3-18,4.8C69.9,79,52.4,83.2,13.7,104.4z"/>
					</g>
					<path class="st1" d="M91.4,41.3c-8.3,4.9-23.3,3.1-27,3.1c-5.9,0-8.9-1.9-21.1,12.1c-4.5,5.2-11.5,10.4-18.6,15
						c-8.3,5.4-16.6,9.8-21.1,12.1c0.7,2.5,1.6,5,2.6,7.5c0,0,0,0,0,0c6.8-6.9,13.1-7.2,17.9-8.1c10.3-1.8,11.8-5.6,38-17.5
						c14.4-6.6,17.7-8.1,31.7-14.5c21.8-10,20.3-16.1,27.7-18.7c-3.2-5.3-7.1-10-11.5-14.1C94.3,24.1,105,33.2,91.4,41.3z"/>
					<g>
						<path class="st4" d="M37.5,54.6c11.6-10.8,55.5-35.3,68-40.1c-1.3-1-2.7-2-4.1-2.9c-11.7,3.3-23.2,7.3-34,11.5
							C55,27.9,43.4,33,33.5,37.7C19,44.6,7.9,50.6,2.4,53.8c-1.5,7.7-1.6,15.8-0.2,23.8c9.9-2.8,19.3-7.7,23.8-12.8
							C29.3,61.2,34,57.9,37.5,54.6z"/>
					</g>
					<path class="st1" d="M84.9,4c-3.1-0.9-6.3-1.6-9.5-2.1c-11,6.9-20.7,3.6-30.1,7.2c-12.8,5-24.1,15.8-30.3,17
						C11.2,31,8.1,36.3,5.9,42c24.8-7.2,25.4-15,37.5-21.1C58,13.5,81.6,8.1,84.9,4z"/>
					<g>
						<path class="st3" d="M9.2,97.4c0.5,0.9,1,1.8,1.6,2.7c12-17.3,30.5-13.2,65.8-23.5c14.9-4.3,39.1-16,54.2-16.6
							c-0.5-5.7-1.9-11.4-4-17C74.3,78.1,52.3,66.5,9.2,97.4z"/>
					</g>
				</g>
			</g>
		</g>
		<g>
			<linearGradient id="SVGID_1_" gradientUnits="userSpaceOnUse" x1="1.0907" y1="65.9457" x2="65.9891" y2="65.9457">
				<stop  offset="0" style="stop-color:#1A171B;stop-opacity:0.5"/>
				<stop  offset="2.616996e-02" style="stop-color:#1A171B;stop-opacity:0.4869"/>
				<stop  offset="1" style="stop-color:#1A171B;stop-opacity:0"/>
			</linearGradient>
			<path class="st5" d="M34.6,65.9c0,45.3,31.4,64.9,31.4,64.9c-35.8,0-64.9-29.1-64.9-64.9C1.1,30.1,30.1,1,66,1
				C66,1,34.6,22.3,34.6,65.9z"/>
		</g>
	</g>
</g>
</svg>
