<?xml version="1.0" encoding="utf-8"?>
<!-- Generator: Adobe Illustrator 21.1.0, SVG Export Plug-In . SVG Version: 6.00 Build 0)  -->
<svg version="1.1" id="Layer_1" xmlns="http://www.w3.org/2000/svg" xmlns:xlink="http://www.w3.org/1999/xlink" x="0px" y="0px"
	 viewBox="0 0 132 132" style="enable-background:new 0 0 132 132;" xml:space="preserve">
<style type="text/css">
	.st0{fill:#CE6F3E;}
	.st1{fill:#F8E2B2;}
	.st2{fill:#792F10;}
	.st3{fill:#BD7E48;}
	.st4{fill:#ED5D21;}
	.st5{fill:url(#SVGID_1_);}
</style>
<g>
	<g>
		<g>
			<g>
				
					<ellipse transform="matrix(0.9224 -0.3863 0.3863 0.9224 -20.3442 30.6108)" class="st0" cx="66" cy="65.9" rx="48.7" ry="48.7"/>
			</g>
			<g>
				<g>
					<g>
						<path class="st1" d="M40.2,107.3c3.3,2.1,6.8,3.8,10.5,4.9c0.4-10.1,32.7-14.6,62.2-32.9c0.5-1.9,1-3.9,1.3-5.9
							c-5.5,2-28.7,16.9-42,18.8C58.9,94.1,49.3,99.5,40.2,107.3z"/>
					</g>
					<g>
						<path class="st2" d="M49,58.9c9.1-10.5,9.4-1.7,13.8-4.9c2.3-1.6,16.4-1.6,22.6-5.3c10.2-6.1,1.8-14.1,13.7-18.5
							c-1.1-1-2.2-2-3.4-2.9C86.2,31,43.3,48.1,38.4,59c0,0-7.5,12-20.2,15.7c0.3,1.6,0.6,3.1,1,4.6C25.4,76,41.6,67.3,49,58.9z"/>
					</g>
					<g>
						<path class="st3" d="M92.5,25.2c-3.8-2.5-8-4.4-12.4-5.7c-4.4,5.6-18,16.6-59.2,28.6c-1.1,2.9-2,5.8-2.6,8.8
							C27.7,51.5,58.8,34.8,92.5,25.2z"/>
					</g>
					<g>
						<path class="st2" d="M50.8,112.3c5,1.6,10.3,2.5,15.6,2.5c2.9-7.5,14.2-7.9,23.6-13.3c8.6-4.8,15.1-14.6,21.1-16.9
							c0.8-1.7,1.4-3.5,1.8-5.3c-6.4,2.3-19,15.7-24.1,17.8C54.9,110.6,52.8,107.8,50.8,112.3z"/>
					</g>
					<g>
						<path class="st4" d="M26.8,94.8c3.7,5,8.2,9.2,13.4,12.4c7.7-15.8,18-14.8,29-20.6c4.6-2.5,14.7-7,18.6-7.6
							c13.4-1.9,20.9-3.6,26.5-5.6c0.2-1.3,0.3-2.6,0.5-3.8c-5.6,0.8-8.8,3.2-13.5,3.6C68.9,75.7,55.8,78.9,26.8,94.8z"/>
					</g>
					<path class="st1" d="M85,47.5c-6.2,3.7-17.5,2.3-20.2,2.3c-4.4,0-6.7-1.4-15.8,9.1c-3.4,3.9-8.6,7.8-14,11.2
						c-6.2,4.1-12.4,7.4-15.8,9.1c0.5,1.9,1.2,3.8,2,5.6l0,0c5.1-5.2,9.8-5.4,13.4-6.1c7.7-1.3,8.8-4.2,28.5-13.1
						c10.8-4.9,13.3-6.1,23.8-10.9c16.3-7.5,15.2-12.1,20.8-14c-2.4-4-5.3-7.5-8.6-10.6C87.2,34.6,95.2,41.4,85,47.5z"/>
					<g>
						<path class="st4" d="M44.6,57.4c8.7-8.1,41.6-26.5,51-30.1c-1-0.8-2-1.5-3.1-2.2c-8.8,2.5-17.4,5.5-25.5,8.6
							c-9.3,3.6-18,7.4-25.4,11c-10.9,5.2-19.2,9.7-23.3,12.1c-1.1,5.8-1.2,11.9-0.1,17.9c7.4-2.1,14.5-5.8,17.8-9.6
							C38.5,62.4,42,59.9,44.6,57.4z"/>
					</g>
					<path class="st1" d="M80.2,19.5c-2.3-0.7-4.7-1.2-7.1-1.6c-8.2,5.2-15.5,2.7-22.6,5.4c-9.6,3.8-18.1,11.8-22.7,12.8
						c-2.9,3.7-5.2,7.6-6.8,11.9C39.5,42.6,40,36.7,49,32.2C60,26.6,77.7,22.6,80.2,19.5z"/>
					<g>
						<path class="st3" d="M23.4,89.5c0.4,0.7,0.8,1.4,1.2,2c9-13,22.9-9.9,49.4-17.6c11.2-3.2,29.3-12,40.7-12.5
							c-0.4-4.3-1.4-8.6-3-12.8C72.2,75.1,55.7,66.4,23.4,89.5z"/>
					</g>
				</g>
			</g>
		</g>
		<g>
			
				<linearGradient id="SVGID_1_" gradientUnits="userSpaceOnUse" x1="17.3238" y1="68.0761" x2="65.9988" y2="68.0761" gradientTransform="matrix(1 0 0 -1 0 134)">
				<stop  offset="0" style="stop-color:#1A171B;stop-opacity:0.5"/>
				<stop  offset="2.616996e-02" style="stop-color:#1A171B;stop-opacity:0.4869"/>
				<stop  offset="1" style="stop-color:#1A171B;stop-opacity:0"/>
			</linearGradient>
			<path class="st5" d="M42.4,65.9c0,34,23.5,48.7,23.5,48.7c-26.8,0-48.7-21.8-48.7-48.7S39.1,17.2,66,17.2
				C66,17.2,42.4,33.2,42.4,65.9z"/>
		</g>
	</g>
</g>
</svg>
