<?xml version="1.0" encoding="utf-8"?>
<!-- Generator: Adobe Illustrator 21.1.0, SVG Export Plug-In . SVG Version: 6.00 Build 0)  -->
<svg version="1.1" id="Layer_1" xmlns="http://www.w3.org/2000/svg" xmlns:xlink="http://www.w3.org/1999/xlink" x="0px" y="0px"
	 viewBox="0 0 132 132" style="enable-background:new 0 0 132 132;" xml:space="preserve">
<style type="text/css">
	.st0{fill:#E27F7F;}
	.st1{fill:#D84443;}
	.st2{fill:url(#SVGID_1_);}
</style>
<g>
	<g>
		<g>
			<g>
				<circle class="st0" cx="66" cy="66" r="65"/>
			</g>
			<g>
				<g>
					<g>
						<path class="st1" d="M62,50.1c0-11-19.8-20-44.2-20c-2.1,0-4.2,0.1-6.2,0.2C4.9,40.6,1,52.8,1,65.9c0,0.9,0,1.7,0.1,2.6
							c5.2,1,10.8,1.5,16.8,1.5C42.3,70,62,61.1,62,50.1z"/>
					</g>
					<g>
						<path class="st1" d="M60.1,12.5c0,11.2,20.2,20.3,45.2,20.3c5.6,0,10.9-0.5,15.8-1.3C109.9,13.7,90.3,1.7,67.9,1
							C63,4.3,60.1,8.2,60.1,12.5z"/>
					</g>
					<g>
						<path class="st1" d="M105.9,104.4c0-4.5-30.6-8.2-68.4-8.2c-10.2,0-19.9,0.3-28.6,0.8c3.1,5.7,7,10.9,11.6,15.4
							c5.4,0.2,11.1,0.3,17,0.3C75.3,112.6,105.9,108.9,105.9,104.4z"/>
					</g>
					<g>
						<path class="st1" d="M71.8,51.1c0,3.3,19.3,5.9,43.2,5.9c5.4,0,10.5-0.1,15.2-0.4c-0.6-3.8-1.4-7.6-2.6-11.1
							c-4-0.2-8.2-0.3-12.6-0.3C91.2,45.2,71.8,47.8,71.8,51.1z"/>
					</g>
					<g>
						<path class="st1" d="M107.5,74c-28,0-50.7,3.7-50.7,8.2c0,4.5,22.7,8.2,50.7,8.2c6.7,0,13.1-0.2,18.9-0.6
							c1.9-4.7,3.2-9.7,3.9-14.9C123.5,74.3,115.7,74,107.5,74z"/>
					</g>
					<g>
						<path class="st1" d="M47.6,9.8c0-1.9-1.3-3.7-3.5-5.1c-8.3,3-15.8,7.5-22.1,13.4c2.1,0.4,4.3,0.6,6.6,0.6
							C39.1,18.7,47.6,14.7,47.6,9.8z"/>
					</g>
					<g>
						<path class="st1" d="M60.1,126.3c0-3.3-6.3-5.9-14.1-5.9c-4.7,0-8.8,1-11.4,2.4c6.7,3.7,14,6.2,21.9,7.4
							C58.7,129.2,60.1,127.8,60.1,126.3z"/>
					</g>
				</g>
				<ellipse class="st1" cx="35.3" cy="82.9" rx="7.6" ry="2.7"/>
			</g>
		</g>
		<g>
			<linearGradient id="SVGID_1_" gradientUnits="userSpaceOnUse" x1="1.0154" y1="65.9794" x2="65.9921" y2="65.9794">
				<stop  offset="0" style="stop-color:#1A171B;stop-opacity:0.5"/>
				<stop  offset="2.616996e-02" style="stop-color:#1A171B;stop-opacity:0.4869"/>
				<stop  offset="1" style="stop-color:#1A171B;stop-opacity:0"/>
			</linearGradient>
			<path class="st2" d="M34.6,66c0,45.3,31.4,65,31.4,65c-35.9,0-65-29.1-65-65C1,30.1,30.1,1,66,1C66,1,34.6,22.3,34.6,66z"/>
		</g>
	</g>
</g>
</svg>
