<?xml version="1.0" encoding="utf-8"?>
<!-- Generator: Adobe Illustrator 21.1.0, SVG Export Plug-In . SVG Version: 6.00 Build 0)  -->
<svg version="1.1" id="Layer_1" xmlns="http://www.w3.org/2000/svg" xmlns:xlink="http://www.w3.org/1999/xlink" x="0px" y="0px"
	 viewBox="0 0 132 132" style="enable-background:new 0 0 132 132;" xml:space="preserve">
<style type="text/css">
	.st0{fill:#E27F7F;}
	.st1{fill:#D84443;}
	.st2{fill:url(#SVGID_1_);}
</style>
<g>
	<g>
		<g>
			<g>
				<circle class="st0" cx="66" cy="66" r="48.8"/>
			</g>
			<g>
				<g>
					<g>
						<path class="st1" d="M63,54.1c0-8.2-14.8-15-33.2-15c-1.6,0-3.1,0.1-4.6,0.2c-5,7.7-7.9,16.9-7.9,26.7c0,0.7,0,1.3,0.1,1.9
							c3.9,0.8,8.1,1.1,12.6,1.1C48.2,69,63,62.3,63,54.1z"/>
					</g>
					<g>
						<path class="st1" d="M61.6,25.9c0,8.4,15.2,15.2,33.9,15.2c4.2,0,8.2-0.4,11.8-1c-8.4-13.4-23.1-22.4-39.9-22.9
							C63.8,19.7,61.6,22.6,61.6,25.9z"/>
					</g>
					<g>
						<path class="st1" d="M95.9,94.8c0-3.4-22.9-6.2-51.3-6.2c-7.7,0-14.9,0.2-21.5,0.6c2.3,4.3,5.2,8.2,8.7,11.5
							c4,0.2,8.3,0.2,12.8,0.2C73,100.9,95.9,98.2,95.9,94.8z"/>
					</g>
					<g>
						<path class="st1" d="M70.4,54.8c0,2.5,14.5,4.4,32.4,4.4c4.1,0,7.9-0.1,11.4-0.3c-0.4-2.8-1-5.7-1.9-8.3
							c-3-0.2-6.1-0.2-9.4-0.2C84.9,50.4,70.4,52.3,70.4,54.8z"/>
					</g>
					<g>
						<path class="st1" d="M97.1,72c-21,0-38,2.8-38,6.1s17,6.2,38,6.2c5,0,9.8-0.2,14.2-0.4c1.4-3.5,2.4-7.3,2.9-11.2
							C109.1,72.2,103.3,72,97.1,72z"/>
					</g>
					<g>
						<path class="st1" d="M52.2,23.9c0-1.4-1-2.8-2.6-3.8c-6.2,2.2-11.8,5.6-16.6,10.1c1.6,0.3,3.2,0.5,4.9,0.5
							C45.8,30.5,52.2,27.5,52.2,23.9z"/>
					</g>
					<g>
						<path class="st1" d="M61.6,111.2c0-2.5-4.7-4.4-10.6-4.4c-3.5,0-6.6,0.8-8.6,1.8c5,2.8,10.5,4.6,16.4,5.5
							C60.5,113.4,61.6,112.4,61.6,111.2z"/>
					</g>
				</g>
				<ellipse class="st1" cx="43" cy="78.7" rx="5.7" ry="2"/>
			</g>
		</g>
		<g>
			
				<linearGradient id="SVGID_1_" gradientUnits="userSpaceOnUse" x1="17.25" y1="68" x2="66" y2="68" gradientTransform="matrix(1 0 0 -1 0 134)">
				<stop  offset="0" style="stop-color:#1A171B;stop-opacity:0.5"/>
				<stop  offset="2.616996e-02" style="stop-color:#1A171B;stop-opacity:0.4869"/>
				<stop  offset="1" style="stop-color:#1A171B;stop-opacity:0"/>
			</linearGradient>
			<path class="st2" d="M42.4,66c0,34,23.6,48.8,23.6,48.8c-26.9,0-48.8-21.8-48.8-48.8S39.1,17.2,66,17.2
				C66,17.2,42.4,33.2,42.4,66z"/>
		</g>
	</g>
</g>
</svg>
