<?xml version="1.0" encoding="utf-8"?>
<!-- Generator: Adobe Illustrator 21.1.0, SVG Export Plug-In . SVG Version: 6.00 Build 0)  -->
<svg version="1.1" id="Layer_1" xmlns="http://www.w3.org/2000/svg" xmlns:xlink="http://www.w3.org/1999/xlink" x="0px" y="0px"
	 viewBox="0 0 132 132" style="enable-background:new 0 0 132 132;" xml:space="preserve">
<style type="text/css">
	.st0{fill:#BA935C;}
	.st1{fill:#AB6A2A;}
	.st2{fill:url(#SVGID_1_);}
</style>
<g>
	<g>
		<g>
			<g>
				<circle class="st0" cx="66" cy="66.5" r="47.5"/>
			</g>
			<g>
				<g>
					<ellipse class="st1" cx="42.9" cy="37.2" rx="4.1" ry="5.3"/>
					<ellipse class="st1" cx="73" cy="34" rx="5.8" ry="4.3"/>
					<ellipse class="st1" cx="91.9" cy="41.9" rx="4.1" ry="3.2"/>
					<ellipse transform="matrix(0.3246 -0.9459 0.9459 0.3246 -6.5264 95.8618)" class="st1" cx="63.9" cy="52.5" rx="3" ry="3.4"/>
					<ellipse class="st1" cx="73" cy="80.3" rx="6.1" ry="4.6"/>
					<ellipse class="st1" cx="91.7" cy="62" rx="3.5" ry="3.2"/>
					<ellipse class="st1" cx="96.7" cy="85.7" rx="3.4" ry="3"/>
					<ellipse class="st1" cx="79.2" cy="103.3" rx="4.5" ry="2.6"/>
					<ellipse class="st1" cx="55.8" cy="98.4" rx="2.8" ry="3"/>
					<ellipse class="st1" cx="43.8" cy="79.9" rx="6.5" ry="4.3"/>
					<ellipse class="st1" cx="31.7" cy="59.8" rx="3.4" ry="3.2"/>
					<ellipse transform="matrix(0.2031 -0.9792 0.9792 0.2031 -61.2241 112.3735)" class="st1" cx="38.4" cy="93.8" rx="2" ry="3"/>
				</g>
			</g>
		</g>
		<g>
			
				<linearGradient id="SVGID_1_" gradientUnits="userSpaceOnUse" x1="18.525" y1="1012.5" x2="66" y2="1012.5" gradientTransform="matrix(1 0 0 1 0 -946)">
				<stop  offset="0" style="stop-color:#1A171B;stop-opacity:0.5"/>
				<stop  offset="2.616996e-02" style="stop-color:#1A171B;stop-opacity:0.4869"/>
				<stop  offset="1" style="stop-color:#1A171B;stop-opacity:0"/>
			</linearGradient>
			<path class="st2" d="M43.1,66.5C43.1,99.6,66,114,66,114c-26.2,0-47.5-21.3-47.5-47.5S39.8,19,66,19C66,19,43.1,34.5,43.1,66.5z"
				/>
		</g>
	</g>
</g>
</svg>
