<?xml version="1.0" encoding="utf-8"?>
<!-- Generator: Adobe Illustrator 21.1.0, SVG Export Plug-In . SVG Version: 6.00 Build 0)  -->
<svg version="1.1" id="Layer_1" xmlns="http://www.w3.org/2000/svg" xmlns:xlink="http://www.w3.org/1999/xlink" x="0px" y="0px"
	 viewBox="0 0 132 132" style="enable-background:new 0 0 132 132;" xml:space="preserve">
<style type="text/css">
	.st0{fill:#BA935C;}
	.st1{fill:#AB6A2A;}
	.st2{fill:url(#SVGID_1_);}
</style>
<g>
	<g>
		<g>
			<g>
				<circle class="st0" cx="66" cy="66.5" r="63.3"/>
			</g>
			<g>
				<g>
					<ellipse class="st1" cx="35.2" cy="27.4" rx="5.5" ry="7"/>
					<ellipse class="st1" cx="75.3" cy="23.2" rx="7.7" ry="5.7"/>
					<ellipse class="st1" cx="100.5" cy="33.7" rx="5.5" ry="4.3"/>
					<ellipse transform="matrix(0.3246 -0.9459 0.9459 0.3246 -2.5501 92.0047)" class="st1" cx="63.1" cy="47.8" rx="4" ry="4.5"/>
					<ellipse class="st1" cx="75.3" cy="84.9" rx="8.2" ry="6.2"/>
					<ellipse class="st1" cx="100.3" cy="60.5" rx="4.7" ry="4.3"/>
					<ellipse class="st1" cx="106.9" cy="92.1" rx="4.5" ry="4"/>
					<ellipse class="st1" cx="83.6" cy="115.6" rx="6" ry="3.5"/>
					<ellipse class="st1" cx="52.4" cy="109.1" rx="3.7" ry="4"/>
					<ellipse class="st1" cx="36.4" cy="84.4" rx="8.7" ry="5.7"/>
					<ellipse class="st1" cx="20.3" cy="57.6" rx="4.5" ry="4.3"/>
					
						<ellipse transform="matrix(0.2031 -0.9792 0.9792 0.2031 -77.4575 110.5933)" class="st1" cx="29.2" cy="102.9" rx="2.7" ry="4"/>
				</g>
			</g>
		</g>
		<g>
			
				<linearGradient id="SVGID_1_" gradientUnits="userSpaceOnUse" x1="2.709" y1="67.5" x2="66" y2="67.5" gradientTransform="matrix(1 0 0 -1 0 134)">
				<stop  offset="0" style="stop-color:#1A171B;stop-opacity:0.5"/>
				<stop  offset="2.616996e-02" style="stop-color:#1A171B;stop-opacity:0.4869"/>
				<stop  offset="1" style="stop-color:#1A171B;stop-opacity:0"/>
			</linearGradient>
			<path class="st2" d="M35.4,66.5c0,44.1,30.6,63.3,30.6,63.3c-34.9,0-63.3-28.4-63.3-63.3S31.1,3.2,66,3.2
				C66,3.2,35.4,23.9,35.4,66.5z"/>
		</g>
	</g>
</g>
</svg>
