<?xml version="1.0" encoding="utf-8"?>
<!-- Generator: Adobe Illustrator 21.1.0, SVG Export Plug-In . SVG Version: 6.00 Build 0)  -->
<svg version="1.1" id="Layer_1" xmlns="http://www.w3.org/2000/svg" xmlns:xlink="http://www.w3.org/1999/xlink" x="0px" y="0px"
	 viewBox="0 0 150 150" style="enable-background:new 0 0 150 150;" xml:space="preserve">
<style type="text/css">
	.st0{fill:#6C8EC1;}
	.st1{fill:#2C4974;}
	.st2{fill:url(#SVGID_1_);}
</style>
<g>
	<g>
		<g>
			<g>
				<circle class="st0" cx="75" cy="75" r="74.5"/>
			</g>
			<g>
				<ellipse class="st1" cx="92.6" cy="26.1" rx="20.3" ry="13.2"/>
			</g>
			<g>
				<ellipse class="st1" cx="79.9" cy="72.9" rx="13.5" ry="5.6"/>
			</g>
			<g>
				<ellipse class="st1" cx="25.4" cy="63.6" rx="7.9" ry="12.3"/>
			</g>
			<g>
				<ellipse class="st1" cx="45.3" cy="97.3" rx="11.3" ry="9"/>
			</g>
			<g>
				<circle class="st1" cx="105.4" cy="116.4" r="9"/>
			</g>
			<g>
				<ellipse class="st1" cx="121.4" cy="67.3" rx="8.6" ry="6.4"/>
			</g>
			<g>
				<ellipse class="st1" cx="38.6" cy="29.5" rx="6.4" ry="3.4"/>
			</g>
			<g>
				<ellipse class="st1" cx="65.2" cy="132.3" rx="3.4" ry="4.5"/>
			</g>
		</g>
		<g>
			
				<linearGradient id="SVGID_1_" gradientUnits="userSpaceOnUse" x1="0.5165" y1="77" x2="75.0168" y2="77" gradientTransform="matrix(1 0 0 -1 0 152)">
				<stop  offset="0" style="stop-color:#1A171B;stop-opacity:0.5"/>
				<stop  offset="2.616996e-02" style="stop-color:#1A171B;stop-opacity:0.4869"/>
				<stop  offset="1" style="stop-color:#1A171B;stop-opacity:0"/>
			</linearGradient>
			<path class="st2" d="M39,75c0,51.9,36.1,74.5,36.1,74.5C34,149.5,0.6,116.1,0.6,75C0.5,33.9,33.9,0.5,75,0.5
				C75,0.5,39,24.9,39,75z"/>
		</g>
	</g>
</g>
</svg>
