<?xml version="1.0" encoding="utf-8"?>
<!-- Generator: Adobe Illustrator 21.1.0, SVG Export Plug-In . SVG Version: 6.00 Build 0)  -->
<svg version="1.1" id="Layer_1" xmlns="http://www.w3.org/2000/svg" xmlns:xlink="http://www.w3.org/1999/xlink" x="0px" y="0px"
	 viewBox="0 0 150 150" style="enable-background:new 0 0 150 150;" xml:space="preserve">
<style type="text/css">
	.st0{fill:#6C8EC1;}
	.st1{fill:#2C4974;}
	.st2{fill:url(#SVGID_1_);}
</style>
<g>
	<g>
		<g>
			<g>
				<circle class="st0" cx="75" cy="75" r="55.9"/>
			</g>
			<g>
				<ellipse class="st1" cx="88.2" cy="38.3" rx="15.2" ry="9.9"/>
			</g>
			<g>
				<ellipse class="st1" cx="78.7" cy="73.4" rx="10.1" ry="4.2"/>
			</g>
			<g>
				<ellipse class="st1" cx="37.8" cy="66.4" rx="5.9" ry="9.2"/>
			</g>
			<g>
				<ellipse class="st1" cx="52.7" cy="91.7" rx="8.5" ry="6.8"/>
			</g>
			<g>
				<circle class="st1" cx="97.8" cy="106.1" r="6.8"/>
			</g>
			<g>
				<ellipse class="st1" cx="109.8" cy="69.2" rx="6.4" ry="4.8"/>
			</g>
			<g>
				<ellipse class="st1" cx="47.7" cy="40.9" rx="4.8" ry="2.6"/>
			</g>
			<g>
				<ellipse class="st1" cx="67.6" cy="118" rx="2.6" ry="3.4"/>
			</g>
		</g>
		<g>
			
				<linearGradient id="SVGID_1_" gradientUnits="userSpaceOnUse" x1="19.1374" y1="1003" x2="75.0125" y2="1003" gradientTransform="matrix(1 0 0 1 0 -928)">
				<stop  offset="0" style="stop-color:#1A171B;stop-opacity:0.5"/>
				<stop  offset="2.616996e-02" style="stop-color:#1A171B;stop-opacity:0.4869"/>
				<stop  offset="1" style="stop-color:#1A171B;stop-opacity:0"/>
			</linearGradient>
			<path class="st2" d="M48,75c0,38.9,27.1,55.9,27.1,55.9c-30.8,0-55.9-25.1-55.9-55.9c-0.1-30.8,25-55.9,55.8-55.9
				C75,19.1,48,37.4,48,75z"/>
		</g>
	</g>
</g>
</svg>
