<?xml version="1.0" encoding="utf-8"?>
<!-- Generator: Adobe Illustrator 21.1.0, SVG Export Plug-In . SVG Version: 6.00 Build 0)  -->
<svg version="1.1" id="Layer_1" xmlns="http://www.w3.org/2000/svg" xmlns:xlink="http://www.w3.org/1999/xlink" x="0px" y="0px"
	 viewBox="0 0 150 150" style="enable-background:new 0 0 150 150;" xml:space="preserve">
<style type="text/css">
	.st0{fill:#959596;}
	.st1{fill:#696C70;}
	.st2{fill:url(#SVGID_1_);}
</style>
<g>
	<g>
		<g>
			<g>
				<g>
					<ellipse class="st0" cx="74.9" cy="75" rx="55.4" ry="55.5"/>
				</g>
				<g>
					<g>
						<g>
							<path class="st1" d="M95.1,35.3c-2.2,2.6-7.3,10.5-10.1,12.4c-4.2,2.9-17.2,3.4-23.9,5c-5.5,1.4-14.5,8.1-9.5,10.8
								c10.4,5.5,62.8-9.5,66,1.9c2,7.2-26.5,5.9-26.8,13.4c-0.2,4.4,12.4,5.1,16.7,5c5.9-0.2,16.9-5.2,22.8-10.5
								c-0.6-19.2-10.9-36-26.1-45.5C100.5,30.1,97.1,32.9,95.1,35.3z"/>
						</g>
						<g>
							<path class="st1" d="M73.5,104.8c1.5-2.6-2.9-9.1-5.6-10.6c-6.2-3.4-22.9,6.4-27.9,1.6c-1.3-1.3-1.3-6,0-7.3
								c1.6-1.5,6.7,0.9,9,0.6c3-0.6,11-2,11.2-5c0.1-3.3-8.5-5.1-11.7-6.2C42.5,76,27,74.5,19.6,73.8c0,0.5,0,0.8,0,1.2
								c0,10.9,3.1,21.1,8.5,29.6c6.4,2.4,16.7,2.8,22.1,2.9C56,107.8,70.5,109.8,73.5,104.8z"/>
						</g>
						<path class="st1" d="M122.7,103.3c-3.7-0.5-7.8-0.8-12.2-0.8c-14.5,0-26.2,3-26.2,6.7s11.7,6.7,26.2,6.7c0.7,0,1.3,0,2,0
							C116.4,112.2,119.9,107.9,122.7,103.3z"/>
						<path class="st1" d="M69.1,34.3c0-2.4-11.7-4.4-26.4-4.4c-3.5,2.5-6.7,5.5-9.5,8.7c2.8,0.2,5.8,0.2,8.8,0.2
							C56.9,38.8,69.1,36.8,69.1,34.3z"/>
					</g>
				</g>
			</g>
			<g>
				
					<linearGradient id="SVGID_1_" gradientUnits="userSpaceOnUse" x1="19.5" y1="1003" x2="74.925" y2="1003" gradientTransform="matrix(1 0 0 1 0 -928)">
					<stop  offset="0" style="stop-color:#1A171B;stop-opacity:0.5"/>
					<stop  offset="2.616996e-02" style="stop-color:#1A171B;stop-opacity:0.4869"/>
					<stop  offset="1" style="stop-color:#1A171B;stop-opacity:0"/>
				</linearGradient>
				<path class="st2" d="M48.2,75c0,38.7,26.8,55.5,26.8,55.5c-30.6,0-55.4-24.8-55.4-55.5s24.9-55.5,55.4-55.5
					C74.9,19.5,48.2,37.7,48.2,75z"/>
			</g>
		</g>
	</g>
</g>
</svg>
