<?xml version="1.0" encoding="utf-8"?>
<!-- Generator: Adobe Illustrator 21.1.0, SVG Export Plug-In . SVG Version: 6.00 Build 0)  -->
<svg version="1.1" id="Layer_1" xmlns="http://www.w3.org/2000/svg" xmlns:xlink="http://www.w3.org/1999/xlink" x="0px" y="0px"
	 viewBox="0 0 230 136" style="enable-background:new 0 0 230 136;" xml:space="preserve">
<style type="text/css">
	.st0{fill:#E2D6B1;}
	.st1{fill:#D6C377;}
	.st2{fill:#E6BEB8;}
	.st3{fill:#EF9654;}
	.st4{fill:#F6CD87;}
	.st5{fill:#AEDEF4;}
	.st6{fill:#ABDCF0;}
	.st7{fill:#F09951;}
	.st8{fill:url(#SVGID_1_);}
	.st9{opacity:0.5;fill:#FFFFFF;enable-background:new    ;}
	.st10{opacity:0.2;}
	.st11{fill:#FFFFFF;}
</style>
<g>
	<g>
		<g>
			<g>
				<g>
					<g>
						<g>
							<circle class="st0" cx="116.9" cy="68" r="63.5"/>
						</g>
						<g>
							<g>
								<path class="st1" d="M180.2,72.6c0.1-1.5,0.2-3,0.2-4.6c0-2.4-0.1-4.7-0.4-7.1c-26,6.7-48.8,8.9-67.5,8.9
									c-12.2,0-22.7-0.9-31.2-2.2c-11.6-1.7-20.8-4.1-27.5-6.2c-0.2,2.1-0.3,4.3-0.3,6.5c0,1.7,0.1,3.4,0.2,5.1
									C73.6,79.4,118.2,88.6,180.2,72.6z"/>
							</g>
							<g>
								<path class="st2" d="M177.3,87.5c1.4-4.5,2.4-9.1,2.8-13.9c-26.1,6.7-48.9,8.9-67.7,8.9c-12.2,0-22.7-0.9-31.2-2.2
									c-11.6-1.7-20.8-4.1-27.5-6.2c0.5,4.9,1.5,9.6,3,14.1C77.6,94.3,119.8,101.8,177.3,87.5z"/>
							</g>
							<g>
								<path class="st3" d="M178.9,54.5c-0.6-3-1.5-5.8-2.5-8.6c-24.5,6-46.1,8-64,8c-12.2,0-22.7-0.9-31.2-2.2
									c-9.7-1.4-17.8-3.3-24.1-5.1c-1,2.7-1.8,5.6-2.4,8.5C75,61.3,118.7,69.8,178.9,54.5z"/>
							</g>
							<g>
								<path class="st4" d="M168.9,31.6c-1.1-1.5-2.2-3-3.4-4.4c-20.2,4.9-38.1,6.7-53.4,6.7c-12.1,0-22.4-1.1-30.9-2.5
									c-5.1-0.9-9.8-1.9-14-3c-1.1,1.4-2.2,2.9-3.2,4.4c5,1.4,10.8,2.8,17.4,4C101.2,40.1,131.3,41.4,168.9,31.6z"/>
							</g>
							<g>
								<path class="st3" d="M80.5,119.7c-0.2,0-0.4-0.1-0.7-0.1c10.4,7.5,23.2,11.9,37,11.9c15.2,0,29.1-5.3,40.1-14.3
									c-17.2,3.7-32.5,5.1-45.7,5.1C99.2,122.4,88.9,121.2,80.5,119.7z"/>
							</g>
							<g>
								<path class="st5" d="M159.7,21.2c-2.1-1.9-4.3-3.6-6.6-5.2c-15.2,2.9-28.9,4-41,4s-22.4-1.1-30.9-2.5
									c-0.7-0.1-1.5-0.3-2.2-0.4c-2.2,1.6-4.3,3.4-6.3,5.3c2.7,0.6,5.6,1.2,8.6,1.7C99.6,27.1,126.4,28.5,159.7,21.2z"/>
							</g>
							<g>
								<path class="st1" d="M152.1,15.1C142,8.4,129.9,4.5,116.9,4.5c-13.7,0-26.3,4.3-36.7,11.7c0.4,0.1,0.8,0.2,1.3,0.2
									C98.2,19.3,122.3,20.7,152.1,15.1z"/>
							</g>
							<g>
								<path class="st6" d="M179.6,58.1c-61.2,15.7-105.4,6.8-125.5,0.5l-0.1,1c6.6,2.1,15.8,4.4,27.3,6.1c8.5,1.2,19,2.2,31.2,2.2
									c18.7,0,41.4-2.2,67.3-8.8L179.6,58.1z"/>
							</g>
							<path class="st7" d="M112.4,96.7c18,0,39.8-2,64.5-8.1c0.1-0.4,0.2-0.7,0.4-1.1c-57.5,14.2-99.7,6.8-120.6,0.7
								c0.1,0.4,0.3,0.8,0.4,1.2c6.3,1.8,14.4,3.7,24.1,5.1C89.7,95.8,100.2,96.7,112.4,96.7z"/>
							<g>
								<path class="st5" d="M80.8,105.5c-6.9-1.2-13-2.8-18.1-4.4c0.3,0.4,0.5,0.8,0.8,1.3c1.2,1.8,2.4,3.5,3.7,5.2
									c0.3,0.4,0.7,0.9,1,1.3c3.7,1,7.8,1.9,12.3,2.7c8.4,1.5,18.7,2.6,30.7,2.6c15.8,0,34.6-2,56-7.6c0.3-0.4,0.6-0.8,0.9-1.2
									c1.2-1.6,2.3-3.3,3.3-5c0.2-0.4,0.5-0.8,0.7-1.2C132.3,110.6,100.9,109.2,80.8,105.5z"/>
							</g>
							<g>
								<path class="st1" d="M80.8,118.8c-0.9-0.2-1.8-0.3-2.6-0.5c0.6,0.4,1.2,0.9,1.8,1.3c0.2,0,0.4,0.1,0.7,0.1
									c8.4,1.5,18.7,2.6,30.7,2.6c13.2,0,28.5-1.4,45.7-5.1c0.5-0.4,1.1-0.9,1.6-1.3C125.1,123.5,98.6,122,80.8,118.8z"/>
							</g>
							<g>
								<path class="st2" d="M174.3,41c-0.1-0.3-0.3-0.6-0.4-0.9c-0.3-0.7-0.7-1.4-1.1-2.1c-0.2-0.3-0.3-0.6-0.5-0.9
									c-39.2,10.8-70.6,9.4-90.9,6c-8-1.4-15-3.1-20.7-4.9c-0.2,0.3-0.3,0.6-0.4,0.9c-0.4,0.7-0.7,1.4-1,2.1
									c-0.1,0.3-0.3,0.6-0.4,0.9c-0.5,1.2-1,2.4-1.5,3.6c21,6,62.5,13,118.6-0.6C175.5,43.7,175,42.3,174.3,41z"/>
							</g>
							<path class="st7" d="M164.8,26.4c-0.4-0.5-0.8-0.9-1.2-1.4c-0.3-0.3-0.5-0.5-0.8-0.8c-34.8,8.1-62.7,6.7-81.4,3.6
								c-4.2-0.7-8.1-1.5-11.6-2.4c-0.2,0.3-0.5,0.5-0.7,0.8c-0.4,0.5-0.8,0.9-1.2,1.4c-0.2,0.3-0.4,0.5-0.7,0.8
								c4.2,1.1,8.8,2.1,14,3c8.5,1.4,18.9,2.5,30.9,2.5c15.3,0,33.2-1.8,53.4-6.7C165.3,26.9,165.1,26.7,164.8,26.4z"/>
						</g>
					</g>
					<g>
						
							<linearGradient id="SVGID_1_" gradientUnits="userSpaceOnUse" x1="53.3" y1="70" x2="116.8" y2="70" gradientTransform="matrix(1 0 0 -1 0 138)">
							<stop  offset="0" style="stop-color:#1A171B;stop-opacity:0.5"/>
							<stop  offset="2.616996e-02" style="stop-color:#1A171B;stop-opacity:0.4869"/>
							<stop  offset="1" style="stop-color:#1A171B;stop-opacity:0"/>
						</linearGradient>
						<path class="st8" d="M86.1,68c0,44.3,30.7,63.5,30.7,63.5c-35.1,0-63.5-28.4-63.5-63.5S81.7,4.5,116.8,4.5
							C116.8,4.5,86.1,25.3,86.1,68z"/>
					</g>
					<g>
						<path class="st9" d="M179.5,57.5c0.2,1.1,0.3,2.2,0.5,3.4c24.1,17.2,37.5,34.4,32.8,45.1c-4.5,10-24.1,11.9-50.6,6.5
							c-17.3-3.5-37.5-10-58.3-19.4c-19.5-8.7-36.7-18.7-50.4-28.6C30.2,47.6,17.3,30.8,22,20.4c5-11,28.3-12.2,58.9-4.7
							c0.9-0.6,1.8-1.2,2.8-1.8C44.3,3.4,13.1,4.8,6.4,19.7c-6.9,15.5,13.7,43.1,49.9,67.2c11.9,8,25.6,15.6,40.5,22.3
							c16.2,7.3,32.2,12.7,47.1,16.3c40.5,9.9,73.1,6.7,79.8-8.3C230.1,102.7,211.8,79.4,179.5,57.5z"/>
						<g class="st10">
							<path class="st11" d="M180.3,65.7c0,0.8,0.1,1.5,0.1,2.3s0,1.6-0.1,2.4c6.8,6,10,11.1,8.6,14.3c-1.2,2.7-5.4,3.8-11.8,3.5
								c-13.6-0.6-37.1-7.4-62.5-18.8C91,59,71.5,47,61.2,37.5c-6-5.6-8.9-10.3-7.5-13.4c1.7-3.7,9.1-4.4,20-2.6
								c1.1-1,2.2-2,3.3-2.9c-22.9-5-39.6-4-43.2,4c-3.3,7.3,4.9,19.9,20.8,33.2C67.5,66.6,85.5,78,106.5,87.4
								c22.5,10.1,44.3,16.1,61.5,18.3c18.7,2.3,32.1-0.1,35.2-7C206.7,91,197.5,78.7,180.3,65.7z"/>
						</g>
					</g>
				</g>
			</g>
		</g>
	</g>
</g>
</svg>
