<?xml version="1.0" encoding="utf-8"?>
<!-- Generator: Adobe Illustrator 21.1.0, SVG Export Plug-In . SVG Version: 6.00 Build 0)  -->
<svg version="1.1" id="Layer_1" xmlns="http://www.w3.org/2000/svg" xmlns:xlink="http://www.w3.org/1999/xlink" x="0px" y="0px"
	 viewBox="0 0 772 564" style="enable-background:new 0 0 772 564;" xml:space="preserve">
<style type="text/css">
	.st0{opacity:0.5;fill:#C5C3E2;}
</style>
<path class="st0" d="M397.2,405.6c-0.6,2-1.8,0.8-2.8,1.3c-2,2.5-3.5,5.4-3.5,8.8c-0.5,0.1-0.8,0.1-1.5,0.2c0-4.6-2.5-7.8-6.7-9.9
	c3.6-2.6,7-5,6.4-9.6c0.6-0.7,1.1-0.5,1.9-0.5C390.4,400.7,393.6,403.4,397.2,405.6z"/>
<path class="st0" d="M203.3,153.9c-0.9,1.4-2.1,0.5-2.9,1c-2.6,3.7-3.2,5.1-3.5,8.5c-0.4,0.5-0.9,0.3-1.3,0.3
	c-0.9-5.1-2.1-7-6.8-9.9c3.7-2.4,7-5.1,6.5-9.9c0.6-0.1,1-0.1,1.7-0.2C196.5,148.6,199.8,151.4,203.3,153.9z"/>
<path class="st0" d="M116,85.7c1.3,1.8,1,4.2,2.3,5.8c1.3,1.6,2.7,3.1,4.7,3.8c0.2,1.2-0.8,1.1-1.3,1.5c-2.8,2.2-5.3,4.8-4.7,8.7
	c-0.6,0.1-0.9,0.1-1.6,0.3c-0.3-3.3-1.5-6.2-3.5-8.8c-0.7-1-2.5,0.6-2.8-1.1C114.3,91.2,114.2,92.1,116,85.7z"/>
<path class="st0" d="M499.2,89.6c-0.6,2-1.8,0.8-2.8,1.3c-1.6,2.6-3.9,5.2-3.3,8.7c-0.7,0.1-1,0.2-1.3,0.2c-2-6.2-2.4-6.8-6.8-10
	c3.3-2.5,6.7-4.9,6.1-9.4c0.6-0.7,1.1-0.5,1.9-0.5C492.4,84.7,495.6,87.4,499.2,89.6z"/>
<path class="st0" d="M593.4,219.7c-1.1,1.6-2.3,0.6-3.2,1.3c-1.7,2.5-3.4,5.1-3.3,8.3c-0.4,0.6-0.9,0.3-1.4,0.3
	c-1-5.8-2.5-8.2-7-9.8c2.3-1.1,3.7-2.7,5.2-4.3c1.5-1.6,1.5-3.7,1.4-5.7c0.7-0.1,1-0.1,1.7-0.2C586.6,214.5,589.5,217.6,593.4,219.7
	z"/>
<path class="st0" d="M101.1,543.9c0.7-0.1,1-0.1,1.7-0.1c0,3.2,1.3,5.9,3.4,8.9c0.4,1,2.6-0.9,2.9,1.2c-0.3,1.7-1.9,0.5-2.9,1.3
	c-1.8,2.4-3.3,5.3-3.4,8.7c-0.6,0-1,0-1.3,0c-0.9-5.2-2.1-7-6.9-9.9C98.3,551.4,101.7,548.7,101.1,543.9z"/>
<path class="st0" d="M261.8,277.5c2,3.9,1.7,9,7.2,9.7c0.3,2.6-2.1,0.9-3.3,2.5c-1.1,2-3.3,4.4-2.6,8c-0.8,0-1.3,0-2.1,0
	c0.5-3.4-1.5-5.9-3.1-8.6c-0.7-1.1-2.5,0.7-3-1.6C258.6,285.5,261.5,282.5,261.8,277.5z"/>
<path class="st0" d="M233,168.3c-0.7,1-1.9,0.1-2.9,0.9c-1.7,2.4-3.3,5-3.2,8.3c-0.5,0.5-1,0.4-1.7,0.3c0.3-4.6-2.4-7.5-6.6-9.8
	c1.7-1.6,4.1-1.4,5-3.9c0.8-2,1.4-4.1,1.6-6.2c0.7,0,1-0.1,1.7-0.1c0,3.4,1.4,6.3,3.5,8.9c0.8,0.1,1.6,0.2,2.3,0.3
	C233.3,167.2,233,167.8,233,168.3z"/>
<path class="st0" d="M602.6,183.5c5.5-1.3,6.1-5.7,6.7-9.7c0.6,0,0.9,0,1.3,0c1.3,3.8,0.9,8.7,6.5,9.4c0.2,2.7-2,1-3.1,2.3
	c-1.2,2.2-3.4,4.6-2.8,8.2c-0.8,0-1.3,0-2.1,0C609.8,188.7,606.4,186.3,602.6,183.5z"/>
<path class="st0" d="M679.6,264.8c-0.6,0-1.4,0.2-1.5-1.8c0-0.4,1.2-0.9,2-1.7c0.7-0.7,1.2-1.5,1.1-3.3c1.1,2.1,1.7,3.4,2.4,4.7
	c0.6,0,1.4-0.2,1.5,1.8c0,0.4-1.2,0.9-2,1.6c-0.8,0.7-0.8,1.7-1.4,2.6C680.9,267.4,680.2,266.1,679.6,264.8z"/>
<path class="st0" d="M29.4,236.1c-2.4,0.8-2.9,2.7-3.9,5.1c-0.3-2.6-2.4-3.5-3.7-5.6c1.8-1,3.4-2.4,3.6-4.9
	C26,233,28.1,233.8,29.4,236.1z"/>
<path class="st0" d="M567.7,307.1c-0.8-1.7-1.5-3-2.2-4.3c-0.7,0-1.3,0-2,0c-0.6-0.5-0.7-1-0.4-1.7c0.7-0.7,1.6-0.2,2.4-0.4
	c0.5-1.2,1.1-2.4,1.9-4.1c0.7,1.4,1.3,2.7,1.9,4c0.5,0.3,1.3,0,1.8,1C569.7,302.9,568.1,304.4,567.7,307.1z"/>
<path class="st0" d="M703.5,354.9c0.5,2.1,2.6,2.9,3.6,4.5c0.2,1.3-0.5,1.5-1.6,1.3c-0.6,1.3-1.1,2.5-1.7,3.8c-1.8-1-0.8-4.3-3.9-4
	C700.2,357.9,703.3,357.4,703.5,354.9z"/>
<path class="st0" d="M627.1,463.5c-0.3,1.4-1,1.2-1.7,1.2c-0.6,1.2-1.1,2.5-1.9,4.1c-1-1.9-1.3-4.2-3.5-4.7
	c-0.1-1.6,1.2-2.1,1.9-2.8c0.7-0.7,1.1-1.5,1.6-3.2C624,460.9,626,461.8,627.1,463.5z"/>
<path class="st0" d="M151.5,481.3c-0.4-2.8-2.6-3.7-3.7-5.6c1.8-1.3,3.3-2.6,3.3-5.7c1.1,2.1,1.7,3.5,2.4,4.8c0.7,0,1.4-0.2,1.5,1.3
	C154.4,477.6,152,478.4,151.5,481.3z"/>
<path class="st0" d="M585.5,474.8c1.1,1.7,1.5,3.9,3.9,4.6c-1.2,2.2-3.4,3.1-3.9,5.4c-1.1-1.7-1.5-3.9-3.9-4.6
	C582.8,477.9,585.1,477,585.5,474.8z"/>
<path class="st0" d="M758,479.5c1-1.7,3.1-2.5,3.4-4.9c0.8,1.6,1.5,2.9,2.1,4.2c0.7,0,1.4-0.2,1.6,1.2c-0.7,1.6-3.1,2.4-3.5,4.9
	c-0.7-1.5-1.4-2.8-2.1-4.1C758.9,480.8,758.2,480.9,758,479.5z"/>
<path class="st0" d="M327.5,488.7c1.1,1.7,1.4,3.9,4.3,4.8c-2.5,1.5-3.9,2.9-4.1,5.3c-0.6-1.5-2-2.4-1.8-3.9
	c-1.1-0.1-1.9-0.2-2.8-0.3c-0.1-0.6-0.1-1-0.1-1.4c0.7-0.9,1.6-0.3,2.5-0.5C326.2,491.4,326.8,490.1,327.5,488.7z"/>
<path class="st0" d="M547.7,560.1c1.3-2.2,3.4-3.1,3.8-5.4c0.8,0.9,0.6,2.1,1.6,2.7c0.8,0.5,1.6,1.2,1.9,1.5
	c0.2,1.8-0.3,2.1-1.5,1.9c-0.6,1.2-1.1,2.5-1.8,4C550.4,563.2,550.3,560.7,547.7,560.1z"/>
<path class="st0" d="M381.6,99.4c2.6-0.8,2.8-3,4-4.8c0.4,2.3,2.5,3.2,3.7,5.3c-2.2,0.9-3,2.8-3.8,5.2
	C385.1,102.5,382.9,101.6,381.6,99.4z"/>
<path class="st0" d="M375.6,208.5c1,2.1,1.3,4.2,3.5,4.7c0.1,1.2-0.3,1.7-1.5,1.4c-0.7,1.4-1.3,2.7-2.1,4.2c-0.6-1.4-1.2-2.6-1.8-4
	c-0.7-0.1-1.5-0.1-2.2-0.2c-0.5-0.3-0.4-0.8-0.4-1.3c0.6-1.2,1.8-0.2,2.7-0.8C374.2,211.4,374.8,210.1,375.6,208.5z"/>
<path class="st0" d="M309.7,188c-2.9,0.8-3.1,3.1-4.2,4.9c-0.4-2.3-2.5-3.2-3.7-5.3c2.2-0.9,3-2.8,3.8-5
	C306.1,184.9,308,186,309.7,188z"/>
<path class="st0" d="M207.6,213.1c-0.9-1.9-1.4-3.1-2-4.4c-0.8,0-1.5,0.1-1.6-1.2c0.7-1.6,3.1-2.4,3.5-5.2c0.5,2.6,2.5,3.6,4,5.5
	C209.2,208.9,208.3,210.7,207.6,213.1z"/>
<path class="st0" d="M13.2,15.7c-0.9,2.1-3.6,2.7-3.3,6.2c-1.1-2.3-1.6-3.6-2.2-4.9c-0.5-0.4-1.3,0-1.7-0.7c0.1-0.4-0.1-0.9,0.3-1.3
	c1.2-1.2,2.7-2.3,3.2-4.2c0.6,1.3,1.2,2.6,1.8,3.9C11.8,14.9,12.7,14.5,13.2,15.7z"/>
<path class="st0" d="M211.3,64.6c1.7-2.8,3.8-3.7,4.2-6.4c0.5,2.7,2.5,3.6,3.5,5.2c0.2,1.2-0.4,1.5-1.6,1.3
	c-0.6,1.2-1.1,2.5-1.7,3.8C213.9,67.6,215,64.1,211.3,64.6z"/>
<path class="st0" d="M229.7,229.2c-0.9-1.9-1.4-3.2-2-4.4c-0.7-0.1-1.4,0.1-1.6-0.8c-0.1-1.1,0.4-1.4,1.5-1.3c0.7-1.3,1.3-2.7,2-4.1
	c0.4,2.2,2.6,3.1,3.8,5.3C231.2,224.8,230.3,226.6,229.7,229.2z"/>
<path class="st0" d="M749.3,287.8c-0.6,1.1-1.4,0.8-1.9,1.1c-0.6,1.3-1.1,2.5-1.8,3.9c-0.7-1.4-1.4-2.7-2-4
	c-0.6-0.1-1.4,0.2-1.5-0.8c-0.2-1.1,0.4-1.4,1.5-1.2c0.7-1.3,1.3-2.7,2-4.1C746,285.1,748.5,286,749.3,287.8z"/>
<path class="st0" d="M363.6,530.8c0.7-1.3,1.3-2.7,2-4.1c0.6,1.4,1.2,2.6,1.8,4c0.4,0.5,1.8-0.3,1.6,1.5c-0.7,1.5-3,2.4-3.4,4.7
	c-0.7-1.4-1.4-2.8-2-4.1c-0.6,0-1.3,0.1-1.5-0.8C361.9,530.9,362.5,530.6,363.6,530.8z"/>
<path class="st0" d="M281.5,195.7c-0.7,1.4-1.3,2.7-2.1,4.2c-0.6-1.4-1.2-2.6-1.8-4c-0.4-0.5-1.8,0.3-1.6-1.5
	c1.9-0.7,2.6-2.6,3.5-5.2c0.5,2.6,2.3,3.7,3.5,5C283.1,195.6,282.6,196,281.5,195.7z"/>
<path class="st0" d="M261.5,480.9c-0.7-1.6-1.3-2.8-1.8-4.1c-0.7-0.1-1.4,0.1-1.6-0.8c-0.1-1.1,0.4-1.4,1.5-1.2
	c0.7-1.3,1.3-2.7,2-4.1c0.9,2,2.3,4,3.5,4.9c-0.1,1.3-1.2,1.9-2.1,2.6C262.2,478.9,262.2,479.9,261.5,480.9z"/>
<path class="st0" d="M317.6,310.6c0.8,1.7,1.3,2.9,1.9,4.1c0.7,0.1,1.4-0.1,1.6,0.9c0.1,1.3-1.1,1.8-1.9,2.5c-0.9,0.7-0.8,2-1.7,2.7
	c-0.7-2-1.5-3.9-3.6-4.7C315.5,314.5,316.5,313,317.6,310.6z"/>
<path class="st0" d="M613.5,474.7c0.6,2.1,2.4,3.3,4,5.1c-2.4,1-3.2,2.8-3.8,5c-1.3-1.7-1.3-4.2-3.7-4.5c-0.2-1.3,0.3-1.7,1.5-1.5
	C612.2,477.4,612.9,476.1,613.5,474.7z"/>
<path class="st0" d="M465,75.7c2.9-1.1,3.6-3,4.4-5.1c0.7,1.5,1.4,2.8,2,4.1c0.7,0,1.3-0.1,1.6,0.9c0,1.2-1.2,1.7-2,2.4
	c-0.7,0.7-1.1,1.5-1.5,3C468.6,78.8,468.1,76.7,465,75.7z"/>
<path class="st0" d="M708.1,466.1c0-1.3,0.7-1.3,1.3-1.3c0.7-1.3,1.8-2.4,1.8-4.6c1,2,1.7,3.4,2.3,4.7c0.7,0,1.4-0.2,1.5,0.3
	c0.2,1.7-0.6,1.7-1.5,1.7c-0.6,1.2-1.1,2.5-1.9,4.2C710.6,468.8,710.1,466.7,708.1,466.1z"/>
<path class="st0" d="M719,520.1c2.7-1.6,4-3.1,4.2-6c1,2,1.7,3.4,2.3,4.7c0.7,0,1.4-0.2,1.6,1.3c0.1,0.7-0.7,0.8-1.7,0.8
	c-0.6,1.2-1.1,2.5-1.8,4C722.3,523.1,722.4,520.5,719,520.1z"/>
<path class="st0" d="M409.1,537.4c0,1.4-0.7,1.4-1.5,1.4c-0.7,1.3-1.3,2.7-2.1,4.1c-0.6-1.3-1.2-2.6-1.9-4.3c-0.1-0.2-1.6,0.7-1.4-1
	c1.1-1.3,3.5-2.1,3.1-4.9C406.5,534.5,406.9,536.7,409.1,537.4z"/>
<path class="st0" d="M515.5,4.8c0.7,0,1.4-0.1,1.5,0.4c0.2,1.6-0.7,1.6-1.5,1.6c-0.1,1.5-1.8,2.2-1.7,3.9c-1.1-1.9-1.7-4-3.7-4.7
	c0-1.3,0.7-1.3,1.3-1.3c0.7-1.3,1.7-2.5,1.9-4.6C514.2,2.1,514.9,3.4,515.5,4.8z"/>
<path class="st0" d="M269.5,0.9c0.4,1.5,1.8,2.4,1.6,3.8c0.9,0,1.7-0.1,1.9,0.8c0.1,1.1-0.5,1.4-1.5,1.2c-0.7,1.3-1.3,2.7-2,4
	c-1-2.2-2.2-3.9-3.8-5.2C267.9,4.6,268.8,2.9,269.5,0.9z"/>
<path class="st0" d="M745.9,185.7c-2.7,1.1-3.6,3-4.3,5.2c-0.8-1.5-1.4-2.8-2.1-4.2c-0.6-0.1-1.4,0.2-1.5-0.8
	c-0.2-1.1,0.5-1.3,1.5-1.2c0.7-1.3,1.3-2.6,2.1-4.1C742.3,182.8,743.2,184.6,745.9,185.7z"/>
<path class="st0" d="M55.5,460.8c0.7-1.4,1.3-2.7,2.1-4.2c0.8,2.1,1.5,4,3.7,4.8c-1.7,1.5-2.7,3-3.7,5.3c-0.7-1.4-1.4-2.7-2-4
	c-0.6,0-1.3,0.1-1.5-0.8C54,460.9,54.5,460.5,55.5,460.8z"/>
<path class="st0" d="M614,457.7c-1.3,0.7-1.8,1-2.7,1.5c-0.4,0.9-1.1,2.2-1.8,3.7c-0.6-1.3-1.2-2.6-2-4.3c-0.1-0.2-1.6,0.7-1.4-1.1
	c1.5-0.9,3-2.3,2.9-5.8C610.5,454.5,610.9,456.7,614,457.7z"/>
<path class="st0" d="M463.1,393.4c0,1.4-0.7,1.4-1.5,1.4c-0.7,1.3-1.3,2.7-2.1,4.1c-0.6-1.3-1.2-2.6-2-4.3c-0.1-0.2-1.6,0.7-1.4-1
	c1.1-1.3,3.5-2.1,3.1-4.9C460.5,390.5,460.9,392.7,463.1,393.4z"/>
<path class="st0" d="M294,394.1c0-1.4,0.7-1.3,1.4-1.3c0.7-1.3,1.6-2.5,1.9-4.6c0.8,1.9,1.4,3.1,2.3,5c0,0.1,1.5-0.9,1.4,0.7
	c-1.1,1.4-3.5,2.2-3.2,5C296.6,396.8,296.1,394.7,294,394.1z"/>
<path class="st0" d="M103.8,377.6c-2.4,1.5-3.8,2.9-3.9,5.8c-1-2-1.7-3.4-2.3-4.7c-0.7,0-1.4,0.2-1.6-1.3c-0.1-0.7,0.7-0.8,1.7-0.8
	c0.6-1.2,1.1-2.5,1.9-4.1C100.5,374.6,101,376.8,103.8,377.6z"/>
<path class="st0" d="M459.5,194.6c-0.4-1.5-1.8-2.4-1.6-3.8c-0.9-0.1-1.7,0.2-1.8-0.8c-0.2-1.1,0.5-1.4,1.5-1.2c0.7-1.3,1.3-2.7,2-4
	c1,2.2,2.2,3.9,3.8,5.2C461.2,190.9,460.3,192.6,459.5,194.6z"/>
<path class="st0" d="M331.2,353.8c2.7-1.1,3.6-3,4.3-5.2c0.8,1.5,1.4,2.8,2.1,4.2c0.6,0,1.3-0.1,1.5,0.9c0.1,1.1-0.6,1.3-1.5,1.1
	c-0.7,1.3-1.3,2.6-2.1,4.1C334.7,356.7,333.9,354.9,331.2,353.8z"/>
<path class="st0" d="M756,305.7c-2.6,1.4-4,2.9-4.1,5.8c-1-2-1.7-3.4-2.3-4.7c-0.7,0-1.4,0.2-1.6-1.3c-0.1-0.7,0.7-0.8,1.7-0.8
	c0.6-1.2,1.1-2.5,1.9-4.1C752.5,302.6,753,304.8,756,305.7z"/>
<path class="st0" d="M745.5,298.7c-0.7,1.4-1.3,2.7-2.1,4.2c-0.7-2.1-1.5-4-4.3-5.1c2.7-1.2,3.6-2.9,4.3-5.2
	c0.8,1.5,1.4,2.9,2.1,4.2c0.6,0,1.3-0.1,1.5,0.8C747.1,298.6,746.6,299,745.5,298.7z"/>
<path class="st0" d="M494.5,274.7c-0.7,1.3-1.3,2.7-2,4.1c-0.8-2.1-1.5-4-3.7-4.8c1.7-1.5,2.7-3,3.7-5.3c0.5,1.5,1.6,2.6,1.7,4
	c0.9,0,1.6-0.1,1.8,0.8C496.2,274.6,495.5,274.9,494.5,274.7z"/>
<path class="st0" d="M371.4,256.4c0.8,1.7,1.5,3,2.2,4.3c0.7,0,1.4-0.2,1.5,0.9c0.1,1-0.6,1.2-1.6,1.1c-0.6,1.2-1.1,2.5-1.9,4.1
	c-0.7-1.4-1.3-2.7-1.9-4c-0.5-0.3-1.3,0-1.8-1C369.4,260.6,371,259.1,371.4,256.4z"/>
<path class="st0" d="M61,229.4c0,1.4-0.7,1.3-1.5,1.3c-0.6,1.3-1.3,2.6-2.1,4.1c-0.6-1.3-1.2-2.6-2.1-4.5c0,0-1.5,1-1.3-0.8
	c1.7-0.8,2.6-2.6,3.4-5C58.4,226.7,59,228.9,61,229.4z"/>
</svg>
