<?xml version="1.0" encoding="utf-8"?>
<!-- Generator: Adobe Illustrator 21.1.0, SVG Export Plug-In . SVG Version: 6.00 Build 0)  -->
<svg version="1.1" id="Layer_1" xmlns="http://www.w3.org/2000/svg" xmlns:xlink="http://www.w3.org/1999/xlink" x="0px" y="0px"
	 viewBox="0 0 150 150" style="enable-background:new 0 0 150 150;" xml:space="preserve">
<style type="text/css">
	.st0{fill:#91C2AD;}
	.st1{fill:#0CBCB7;}
	.st2{fill:url(#SVGID_1_);}
</style>
<g>
	<g>
		<g>
			<g>
				<circle class="st0" cx="75" cy="75" r="55.5"/>
			</g>
			<g>
				<g>
					<path class="st1" d="M35.8,114.2c2.2,2.2,4.5,4,6.9,5.9c14.8-2.8,37.3-4.8,63.4,0.7c4-2.8,7.6-6,10.9-9.7
						C83.4,104.3,51.9,110.1,35.8,114.2z"/>
				</g>
				<g>
					<path class="st1" d="M112,33.5c-23.1,4-55.5-0.9-69.6-3.5c-3.5,2.5-6.7,5.5-9.5,8.8c21,9.2,59,23.4,96.4,25
						C127,51.8,120.7,41.3,112,33.5z"/>
				</g>
				<g>
					<path class="st1" d="M19.7,69.4c-0.1,1.8-0.2,3.6-0.2,5.6c0,2,0.1,4,0.4,5.9c33.3-0.6,61.6,12.8,3.8,15.1
						c1.3,3.1,2.9,6.1,4.6,9L127,94.3c1.9-5.2,3.2-10.9,3.4-16.7C101.1,81.3,50.7,74.5,19.7,69.4z"/>
				</g>
			</g>
			<g>
				<ellipse class="st1" cx="49" cy="61.6" rx="10.6" ry="3.2"/>
			</g>
			<ellipse class="st1" cx="89.6" cy="28.4" rx="3.2" ry="2.3"/>
			<ellipse class="st1" cx="62.5" cy="122.1" rx="3.2" ry="1.4"/>
			<ellipse class="st1" cx="114.8" cy="102.2" rx="1.8" ry="3"/>
		</g>
		<g>
			
				<linearGradient id="SVGID_1_" gradientUnits="userSpaceOnUse" x1="19.5126" y1="1003" x2="75.0128" y2="1003" gradientTransform="matrix(1 0 0 1 0 -928)">
				<stop  offset="0" style="stop-color:#1A171B;stop-opacity:0.5"/>
				<stop  offset="2.616996e-02" style="stop-color:#1A171B;stop-opacity:0.4869"/>
				<stop  offset="1" style="stop-color:#1A171B;stop-opacity:0"/>
			</linearGradient>
			<path class="st2" d="M48.2,75c0,38.7,26.8,55.5,26.8,55.5c-30.6,0-55.5-24.9-55.5-55.5C19.5,44.4,44.4,19.5,75,19.5
				C75,19.5,48.2,37.7,48.2,75z"/>
		</g>
	</g>
</g>
</svg>
