<?xml version="1.0" encoding="utf-8"?>
<!-- Generator: Adobe Illustrator 21.1.0, SVG Export Plug-In . SVG Version: 6.00 Build 0)  -->
<svg version="1.1" id="Layer_1" xmlns="http://www.w3.org/2000/svg" xmlns:xlink="http://www.w3.org/1999/xlink" x="0px" y="0px"
	 viewBox="0 0 150 150" style="enable-background:new 0 0 150 150;" xml:space="preserve">
<style type="text/css">
	.st0{fill:#91C2AD;}
	.st1{fill:#0CBCB7;}
	.st2{fill:url(#SVGID_1_);}
</style>
<g>
	<g>
		<g>
			<g>
				<circle class="st0" cx="75" cy="75" r="74"/>
			</g>
			<g>
				<g>
					<path class="st1" d="M22.7,127.3c2.9,2.9,6,5.4,9.2,7.9c19.7-3.7,49.8-6.4,84.6,0.9c5.3-3.7,10.2-8,14.5-12.9
						C86.2,114.1,44.2,121.8,22.7,127.3z"/>
				</g>
				<g>
					<path class="st1" d="M124.3,19.7c-30.8,5.3-74-1.2-92.8-4.6c-4.6,3.4-8.9,7.3-12.6,11.7C46.9,39,97.5,58,147.5,60.1
						C144.3,44.1,135.9,30.1,124.3,19.7z"/>
				</g>
				<g>
					<path class="st1" d="M1.3,67.5C1.1,69.9,1,72.3,1,74.9c0,2.7,0.1,5.3,0.5,7.9c44.4-0.8,82.2,17.1,5,20.1
						c1.7,4.2,3.8,8.2,6.2,12l131.7-14.2c2.5-6.9,4.2-14.5,4.5-22.2C109.8,83.4,42.6,74.3,1.3,67.5z"/>
				</g>
			</g>
			<g>
				<ellipse class="st1" cx="40.3" cy="57.1" rx="14.1" ry="4.3"/>
			</g>
			<ellipse class="st1" cx="94.5" cy="12.8" rx="4.3" ry="3.1"/>
			<ellipse class="st1" cx="58.3" cy="137.8" rx="4.3" ry="1.8"/>
			<ellipse class="st1" cx="128.1" cy="111.3" rx="2.4" ry="4"/>
		</g>
		<g>
			
				<linearGradient id="SVGID_1_" gradientUnits="userSpaceOnUse" x1="1.0168" y1="77" x2="75.0171" y2="77" gradientTransform="matrix(1 0 0 -1 0 152)">
				<stop  offset="0" style="stop-color:#1A171B;stop-opacity:0.5"/>
				<stop  offset="2.616996e-02" style="stop-color:#1A171B;stop-opacity:0.4869"/>
				<stop  offset="1" style="stop-color:#1A171B;stop-opacity:0"/>
			</linearGradient>
			<path class="st2" d="M39.3,75c0,51.6,35.8,74,35.8,74c-40.8,0-74-33.2-74-74C1,34.2,34.2,1,75,1C75,1,39.3,25.3,39.3,75z"/>
		</g>
	</g>
</g>
</svg>
