<?xml version="1.0" encoding="utf-8"?>
<!-- Generator: Adobe Illustrator 21.1.0, SVG Export Plug-In . SVG Version: 6.00 Build 0)  -->
<svg version="1.1" id="Layer_1" xmlns="http://www.w3.org/2000/svg" xmlns:xlink="http://www.w3.org/1999/xlink" x="0px" y="0px"
	 viewBox="0 0 132 132" style="enable-background:new 0 0 132 132;" xml:space="preserve">
<style type="text/css">
	.st0{fill:#CBBA97;}
	.st1{fill:#B89876;}
	.st2{fill:#DBC59E;}
	.st3{fill:#F8E2B2;}
	.st4{fill:#C4966E;}
	.st5{fill:url(#SVGID_1_);}
</style>
<g>
	<g>
		<g>
			<g>
				<circle class="st0" cx="66" cy="66.5" r="66.2"/>
			</g>
			<g>
				<g>
					<path class="st1" d="M120.1,28.4c-3.1-4.3-6.6-8.3-10.6-11.8c-5.6,5.1-25.6,12.2-95.3,8.6c-1.7,2.1-3.3,4.4-4.7,6.7
						c8,0.3,26.8,1.6,44.5,6.2C71.5,42.8,104.6,33.4,120.1,28.4z"/>
				</g>
				<g>
					<path class="st1" d="M83.8,84.4c-17,8.4-20.1,1.6-27.4,3.2c-3.7,0.8-4.4,3.5-14.2,4.9c-16,2.3-19.2,2.4-36.3,1.6
						c0.9,1.9,1.8,3.7,2.8,5.4c13.6,0.4,76.5,1.4,88.4-9.6c0,0,15.7-11.1,33.6-9c0.5-2.1,0.8-4.2,1.1-6.3
						C122.3,75.3,97.4,77.7,83.8,84.4z"/>
				</g>
				<g>
					<path class="st2" d="M11.4,103.8c3.5,5.1,7.7,9.7,12.5,13.7c8.5-4.7,31.3-11.4,89.4-4.7c2.9-3,5.6-6.2,7.9-9.7
						C106.5,104.9,58.8,109.6,11.4,103.8z"/>
				</g>
				<g>
					<path class="st3" d="M109.5,16.6C104.1,11.9,98,8.1,91.2,5.3c-14.5,15-53.5,15.1-71.9,14.3c-1.8,1.8-3.5,3.7-5.1,5.7
						C83.9,28.8,103.9,21.8,109.5,16.6z"/>
				</g>
				<path class="st3" d="M130.4,51.1c-2-8.3-5.5-16-10.3-22.7c-15.5,5-48.6,14.4-66.1,9.9C36.3,33.6,17.5,32.4,9.5,32
					c-0.9,1.5-1.7,3-2.5,4.6c7.4,1.8,19.3,6.9,25.4,8.9C74.1,59.1,116.2,53.6,130.4,51.1z"/>
				<path class="st3" d="M42.2,92.5c9.7-1.4,10.5-4.1,14.2-4.9c7.3-1.6,10.4,5.2,27.4-3.2c13.6-6.7,38.5-9.1,47.9-9.9
					c0.3-2.7,0.5-5.4,0.5-8.1c0,0,0,0,0,0c-9.1,3.8-26.8,4.4-26.8,4.4S84.3,69.7,52.9,74c-24.2,3.3-44.3,2.7-52.3,2.3
					c0.9,6.3,2.8,12.2,5.3,17.8C23,94.9,26.2,94.8,42.2,92.5z"/>
				<g>
					<path class="st4" d="M97.1,89.9c-11.8,11.1-74.7,10-88.4,9.6c0.8,1.5,1.7,2.9,2.7,4.3c47.4,5.8,95.1,1.1,109.7-0.6
						c4.5-6.7,7.7-14.2,9.5-22.3C112.7,78.8,97.1,89.9,97.1,89.9z"/>
				</g>
				<path class="st3" d="M23.9,117.5c2.6,2.1,5.3,4,8.1,5.8c30.8-5.1,55.5-1.4,66.3,1c5.5-3.1,10.5-6.9,14.9-11.4
					C55.2,106.2,32.4,112.8,23.9,117.5z"/>
				<path class="st4" d="M131.9,59.5c-0.1-1.1-0.2-2.1-0.4-3.2C117.7,58,51.3,64.9,2.8,46.8c-1.7,5.6-2.7,11.5-2.9,17.6
					C15.1,66,79.2,71.5,131.9,59.5z"/>
			</g>
		</g>
		<g>
			<linearGradient id="SVGID_1_" gradientUnits="userSpaceOnUse" x1="-0.1978" y1="66.4934" x2="66.002" y2="66.4934">
				<stop  offset="0" style="stop-color:#1A171B;stop-opacity:0.5"/>
				<stop  offset="2.616996e-02" style="stop-color:#1A171B;stop-opacity:0.4869"/>
				<stop  offset="1" style="stop-color:#1A171B;stop-opacity:0"/>
			</linearGradient>
			<path class="st5" d="M34,66.5c0,46.2,32,66.2,32,66.2c-36.6,0-66.2-29.6-66.2-66.2C-0.2,29.9,29.4,0.3,66,0.3
				C66,0.3,34,22,34,66.5z"/>
		</g>
	</g>
</g>
</svg>
