<?xml version="1.0" encoding="utf-8"?>
<!-- Generator: Adobe Illustrator 21.1.0, SVG Export Plug-In . SVG Version: 6.00 Build 0)  -->
<svg version="1.1" id="Layer_1" xmlns="http://www.w3.org/2000/svg" xmlns:xlink="http://www.w3.org/1999/xlink" x="0px" y="0px"
	 viewBox="0 0 132 132" style="enable-background:new 0 0 132 132;" xml:space="preserve">
<style type="text/css">
	.st0{fill:#CBBA97;}
	.st1{fill:#B89876;}
	.st2{fill:#DBC59E;}
	.st3{fill:#F8E2B2;}
	.st4{fill:#C4966E;}
	.st5{fill:url(#SVGID_1_);}
</style>
<g>
	<g>
		<g>
			<g>
				<circle class="st0" cx="66" cy="66.5" r="49.6"/>
			</g>
			<g>
				<g>
					<path class="st1" d="M106.6,37.9c-2.3-3.2-4.9-6.2-7.9-8.9c-4.2,3.8-19.2,9.1-71.5,6.4c-1.3,1.6-2.5,3.3-3.5,5
						c6,0.2,20.1,1.2,33.4,4.6C70.1,48.7,94.9,41.7,106.6,37.9z"/>
				</g>
				<g>
					<path class="st1" d="M79.4,79.9c-12.8,6.3-15.1,1.2-20.6,2.4c-2.8,0.6-3.3,2.6-10.7,3.7c-12,1.7-14.4,1.8-27.2,1.2
						c0.7,1.4,1.4,2.8,2.1,4.1c10.2,0.3,57.4,1.1,66.3-7.2c0,0,11.8-8.3,25.2-6.8c0.4-1.6,0.6-3.2,0.8-4.7
						C108.2,73.1,89.6,74.9,79.4,79.9z"/>
				</g>
				<g>
					<path class="st2" d="M25.1,94.5c2.6,3.8,5.8,7.3,9.4,10.3c6.4-3.5,23.5-8.6,67.1-3.5c2.2-2.2,4.2-4.6,5.9-7.3
						C96.4,95.3,60.6,98.8,25.1,94.5z"/>
				</g>
				<g>
					<path class="st3" d="M98.6,29.1c-4.1-3.5-8.6-6.4-13.7-8.5C74,31.8,44.8,31.9,31,31.3c-1.3,1.3-2.6,2.8-3.8,4.3
						C79.4,38.2,94.4,33,98.6,29.1z"/>
				</g>
				<path class="st3" d="M114.3,54.9c-1.5-6.2-4.1-12-7.7-17C94.9,41.7,70.1,48.7,57,45.3c-13.3-3.5-27.4-4.4-33.4-4.7
					c-0.7,1.1-1.3,2.2-1.9,3.4c5.5,1.4,14.5,5.2,19.1,6.7C72.1,60.9,103.7,56.8,114.3,54.9z"/>
				<path class="st3" d="M48.2,86c7.3-1.1,7.9-3.1,10.7-3.7c5.5-1.2,7.8,3.9,20.6-2.4c10.2-5,28.9-6.8,35.9-7.4
					c0.2-2,0.4-4.1,0.4-6.1l0,0c-6.8,2.8-20.1,3.3-20.1,3.3s-15.8-0.8-39.4,2.4C38,74.6,23,74.1,17,73.8c0.7,4.7,2.1,9.2,4,13.4
					C33.8,87.8,36.2,87.7,48.2,86z"/>
				<g>
					<path class="st4" d="M89.3,84.1c-8.8,8.3-56,7.5-66.3,7.2c0.6,1.1,1.3,2.2,2,3.2c35.6,4.4,71.3,0.8,82.3-0.4
						c3.4-5,5.8-10.6,7.1-16.7C101,75.7,89.3,84.1,89.3,84.1z"/>
				</g>
				<path class="st3" d="M34.4,104.8c1.9,1.6,4,3,6.1,4.3c23.1-3.8,41.6-1,49.7,0.8c4.1-2.3,7.9-5.2,11.2-8.5
					C57.9,96.3,40.8,101.2,34.4,104.8z"/>
				<path class="st4" d="M115.4,61.2c-0.1-0.8-0.1-1.6-0.3-2.4c-10.3,1.3-60.1,6.5-96.5-7.1c-1.3,4.2-2,8.6-2.2,13.2
					C27.8,66.1,75.9,70.2,115.4,61.2z"/>
			</g>
		</g>
		<g>
			
				<linearGradient id="SVGID_1_" gradientUnits="userSpaceOnUse" x1="16.35" y1="67.5" x2="66" y2="67.5" gradientTransform="matrix(1 0 0 -1 0 134)">
				<stop  offset="0" style="stop-color:#1A171B;stop-opacity:0.5"/>
				<stop  offset="2.616996e-02" style="stop-color:#1A171B;stop-opacity:0.4869"/>
				<stop  offset="1" style="stop-color:#1A171B;stop-opacity:0"/>
			</linearGradient>
			<path class="st5" d="M42,66.5c0,34.6,24,49.6,24,49.6c-27.4,0-49.6-22.2-49.6-49.6C16.4,39,38.6,16.9,66,16.9
				C66,16.9,42,33.1,42,66.5z"/>
		</g>
	</g>
</g>
</svg>
